<svg xmlns="http://www.w3.org/2000/svg" version="1.1" xmlns:xlink="http://www.w3.org/1999/xlink" xmlns:svgjs="http://svgjs.dev/svgjs" width="1920" height="1080" preserveAspectRatio="none" viewBox="0 0 1920 1080"><g mask="url(&quot;#SvgjsMask1153&quot;)" fill="none"><g mask="url(&quot;#SvgjsMask1154&quot;)"><path d="M1662.5 507.5L997.5 507.5" stroke-width="5.83" stroke="rgba(66, 99, 134, 1)"></path><path d="M1653.75 507.5 a8.75 8.75 0 1 0 17.5 0 a8.75 8.75 0 1 0 -17.5 0zM988.75 507.5 a8.75 8.75 0 1 0 17.5 0 a8.75 8.75 0 1 0 -17.5 0z" fill="rgba(66, 99, 134, 1)"></path><path d="M1137.5 892.5L1137.5 1067.5" stroke-width="5.83" stroke="rgba(66, 99, 134, 1)"></path><path d="M1128.75 892.5 a8.75 8.75 0 1 0 17.5 0 a8.75 8.75 0 1 0 -17.5 0zM1128.75 1067.5 a8.75 8.75 0 1 0 17.5 0 a8.75 8.75 0 1 0 -17.5 0z" fill="rgba(66, 99, 134, 1)"></path><path d="M1102.5 787.5L962.5 647.5L962.5 122.5" stroke-width="5.83" stroke="rgba(66, 99, 134, 1)"></path><path d="M1093.75 787.5 a8.75 8.75 0 1 0 17.5 0 a8.75 8.75 0 1 0 -17.5 0zM953.75 122.5 a8.75 8.75 0 1 0 17.5 0 a8.75 8.75 0 1 0 -17.5 0z" fill="rgba(66, 99, 134, 1)"></path><path d="M787.5 577.5L927.5 577.5" stroke-width="5.83" stroke="rgba(66, 99, 134, 1)"></path><path d="M778.75 577.5 a8.75 8.75 0 1 0 17.5 0 a8.75 8.75 0 1 0 -17.5 0zM918.75 577.5 a8.75 8.75 0 1 0 17.5 0 a8.75 8.75 0 1 0 -17.5 0z" fill="rgba(66, 99, 134, 1)"></path><path d="M87.5 367.5L297.5 157.5L542.5 157.5L577.5 192.5L577.5 367.5" stroke-width="5.83" stroke="rgba(66, 99, 134, 1)"></path><path d="M78.75 367.5 a8.75 8.75 0 1 0 17.5 0 a8.75 8.75 0 1 0 -17.5 0zM568.75 367.5 a8.75 8.75 0 1 0 17.5 0 a8.75 8.75 0 1 0 -17.5 0z" fill="rgba(66, 99, 134, 1)"></path><path d="M1697.5 192.5L1732.5 227.5L1732.5 612.5L1487.5 857.5" stroke-width="5.83" stroke="rgba(66, 99, 134, 1)"></path><path d="M1688.75 192.5 a8.75 8.75 0 1 0 17.5 0 a8.75 8.75 0 1 0 -17.5 0zM1478.75 857.5 a8.75 8.75 0 1 0 17.5 0 a8.75 8.75 0 1 0 -17.5 0z" fill="rgba(66, 99, 134, 1)"></path><path d="M507.5 507.5L17.5 997.5L17.5 1067.5" stroke-width="5.83" stroke="rgba(66, 99, 134, 1)"></path><path d="M498.75 507.5 a8.75 8.75 0 1 0 17.5 0 a8.75 8.75 0 1 0 -17.5 0zM8.75 1067.5 a8.75 8.75 0 1 0 17.5 0 a8.75 8.75 0 1 0 -17.5 0z" fill="rgba(66, 99, 134, 1)"></path><path d="M402.5 997.5L402.5 962.5L577.5 787.5L577.5 717.5L472.5 612.5L437.5 612.5L192.5 857.5" stroke-width="5.83" stroke="rgba(66, 99, 134, 1)"></path><path d="M393.75 997.5 a8.75 8.75 0 1 0 17.5 0 a8.75 8.75 0 1 0 -17.5 0zM183.75 857.5 a8.75 8.75 0 1 0 17.5 0 a8.75 8.75 0 1 0 -17.5 0z" fill="rgba(66, 99, 134, 1)"></path><path d="M1522.5 542.5L997.5 542.5" stroke-width="5.83" stroke="rgba(66, 99, 134, 1)"></path><path d="M1513.75 542.5 a8.75 8.75 0 1 0 17.5 0 a8.75 8.75 0 1 0 -17.5 0zM988.75 542.5 a8.75 8.75 0 1 0 17.5 0 a8.75 8.75 0 1 0 -17.5 0z" fill="rgba(66, 99, 134, 1)"></path><path d="M997.5 612.5L1242.5 612.5L1277.5 577.5L1627.5 577.5L1662.5 612.5" stroke-width="5.83" stroke="rgba(66, 99, 134, 1)"></path><path d="M988.75 612.5 a8.75 8.75 0 1 0 17.5 0 a8.75 8.75 0 1 0 -17.5 0zM1653.75 612.5 a8.75 8.75 0 1 0 17.5 0 a8.75 8.75 0 1 0 -17.5 0z" fill="rgba(66, 99, 134, 1)"></path><path d="M1207.5 647.5L1487.5 647.5L1557.5 717.5L1557.5 752.5L1312.5 997.5L1277.5 997.5" stroke-width="5.83" stroke="rgba(66, 99, 134, 1)"></path><path d="M1198.75 647.5 a8.75 8.75 0 1 0 17.5 0 a8.75 8.75 0 1 0 -17.5 0zM1268.75 997.5 a8.75 8.75 0 1 0 17.5 0 a8.75 8.75 0 1 0 -17.5 0z" fill="rgba(66, 99, 134, 1)"></path><path d="M542.5 87.5L542.5 17.5" stroke-width="5.83" stroke="rgba(66, 99, 134, 1)"></path><path d="M533.75 87.5 a8.75 8.75 0 1 0 17.5 0 a8.75 8.75 0 1 0 -17.5 0zM533.75 17.5 a8.75 8.75 0 1 0 17.5 0 a8.75 8.75 0 1 0 -17.5 0z" fill="rgba(66, 99, 134, 1)"></path><path d="M822.5 157.5L822.5 17.5" stroke-width="5.83" stroke="rgba(66, 99, 134, 1)"></path><path d="M813.75 157.5 a8.75 8.75 0 1 0 17.5 0 a8.75 8.75 0 1 0 -17.5 0zM813.75 17.5 a8.75 8.75 0 1 0 17.5 0 a8.75 8.75 0 1 0 -17.5 0z" fill="rgba(66, 99, 134, 1)"></path><path d="M17.5 192.5L122.5 297.5" stroke-width="5.83" stroke="rgba(66, 99, 134, 1)"></path><path d="M8.75 192.5 a8.75 8.75 0 1 0 17.5 0 a8.75 8.75 0 1 0 -17.5 0zM113.75 297.5 a8.75 8.75 0 1 0 17.5 0 a8.75 8.75 0 1 0 -17.5 0z" fill="rgba(66, 99, 134, 1)"></path><path d="M1662.5 1032.5L1662.5 717.5L1907.5 472.5L1907.5 367.5" stroke-width="5.83" stroke="rgba(66, 99, 134, 1)"></path><path d="M1653.75 1032.5 a8.75 8.75 0 1 0 17.5 0 a8.75 8.75 0 1 0 -17.5 0zM1898.75 367.5 a8.75 8.75 0 1 0 17.5 0 a8.75 8.75 0 1 0 -17.5 0z" fill="rgba(66, 99, 134, 1)"></path><path d="M1767.5 402.5L1802.5 367.5L1802.5 157.5L1907.5 52.5L1907.5 17.5" stroke-width="5.83" stroke="rgba(66, 99, 134, 1)"></path><path d="M1758.75 402.5 a8.75 8.75 0 1 0 17.5 0 a8.75 8.75 0 1 0 -17.5 0zM1898.75 17.5 a8.75 8.75 0 1 0 17.5 0 a8.75 8.75 0 1 0 -17.5 0z" fill="rgba(66, 99, 134, 1)"></path><path d="M577.5 1067.5L927.5 717.5L927.5 612.5" stroke-width="5.83" stroke="rgba(66, 99, 134, 1)"></path><path d="M568.75 1067.5 a8.75 8.75 0 1 0 17.5 0 a8.75 8.75 0 1 0 -17.5 0zM918.75 612.5 a8.75 8.75 0 1 0 17.5 0 a8.75 8.75 0 1 0 -17.5 0z" fill="rgba(66, 99, 134, 1)"></path><path d="M507.5 577.5L822.5 262.5L927.5 262.5" stroke-width="5.83" stroke="rgba(66, 99, 134, 1)"></path><path d="M498.75 577.5 a8.75 8.75 0 1 0 17.5 0 a8.75 8.75 0 1 0 -17.5 0zM918.75 262.5 a8.75 8.75 0 1 0 17.5 0 a8.75 8.75 0 1 0 -17.5 0z" fill="rgba(66, 99, 134, 1)"></path><path d="M752.5 822.5L612.5 682.5L577.5 682.5L507.5 612.5" stroke-width="5.83" stroke="rgba(66, 99, 134, 1)"></path><path d="M743.75 822.5 a8.75 8.75 0 1 0 17.5 0 a8.75 8.75 0 1 0 -17.5 0zM498.75 612.5 a8.75 8.75 0 1 0 17.5 0 a8.75 8.75 0 1 0 -17.5 0z" fill="rgba(66, 99, 134, 1)"></path><path d="M1172.5 52.5L1207.5 17.5L1837.5 17.5" stroke-width="5.83" stroke="rgba(66, 99, 134, 1)"></path><path d="M1163.75 52.5 a8.75 8.75 0 1 0 17.5 0 a8.75 8.75 0 1 0 -17.5 0zM1828.75 17.5 a8.75 8.75 0 1 0 17.5 0 a8.75 8.75 0 1 0 -17.5 0z" fill="rgba(66, 99, 134, 1)"></path><path d="M1872.5 402.5L1872.5 122.5L1907.5 87.5" stroke-width="5.83" stroke="rgba(66, 99, 134, 1)"></path><path d="M1863.75 402.5 a8.75 8.75 0 1 0 17.5 0 a8.75 8.75 0 1 0 -17.5 0zM1898.75 87.5 a8.75 8.75 0 1 0 17.5 0 a8.75 8.75 0 1 0 -17.5 0z" fill="rgba(66, 99, 134, 1)"></path><path d="M1032.5 437.5L1032.5 17.5" stroke-width="5.83" stroke="rgba(66, 99, 134, 1)"></path><path d="M1023.75 437.5 a8.75 8.75 0 1 0 17.5 0 a8.75 8.75 0 1 0 -17.5 0zM1023.75 17.5 a8.75 8.75 0 1 0 17.5 0 a8.75 8.75 0 1 0 -17.5 0z" fill="rgba(66, 99, 134, 1)"></path><path d="M892.5 52.5L927.5 52.5L997.5 122.5L997.5 472.5" stroke-width="5.83" stroke="rgba(66, 99, 134, 1)"></path><path d="M883.75 52.5 a8.75 8.75 0 1 0 17.5 0 a8.75 8.75 0 1 0 -17.5 0zM988.75 472.5 a8.75 8.75 0 1 0 17.5 0 a8.75 8.75 0 1 0 -17.5 0z" fill="rgba(66, 99, 134, 1)"></path><path d="M1067.5 647.5L1067.5 717.5L1312.5 962.5" stroke-width="5.83" stroke="rgba(66, 99, 134, 1)"></path><path d="M1058.75 647.5 a8.75 8.75 0 1 0 17.5 0 a8.75 8.75 0 1 0 -17.5 0zM1303.75 962.5 a8.75 8.75 0 1 0 17.5 0 a8.75 8.75 0 1 0 -17.5 0z" fill="rgba(66, 99, 134, 1)"></path><path d="M752.5 472.5L857.5 472.5L927.5 402.5L927.5 297.5" stroke-width="5.83" stroke="rgba(66, 99, 134, 1)"></path><path d="M743.75 472.5 a8.75 8.75 0 1 0 17.5 0 a8.75 8.75 0 1 0 -17.5 0zM918.75 297.5 a8.75 8.75 0 1 0 17.5 0 a8.75 8.75 0 1 0 -17.5 0z" fill="rgba(66, 99, 134, 1)"></path><path d="M752.5 297.5L752.5 17.5" stroke-width="5.83" stroke="rgba(66, 99, 134, 1)"></path><path d="M743.75 297.5 a8.75 8.75 0 1 0 17.5 0 a8.75 8.75 0 1 0 -17.5 0zM743.75 17.5 a8.75 8.75 0 1 0 17.5 0 a8.75 8.75 0 1 0 -17.5 0z" fill="rgba(66, 99, 134, 1)"></path><path d="M682.5 297.5L612.5 227.5L612.5 192.5L437.5 17.5L87.5 17.5L52.5 52.5" stroke-width="5.83" stroke="rgba(66, 99, 134, 1)"></path><path d="M673.75 297.5 a8.75 8.75 0 1 0 17.5 0 a8.75 8.75 0 1 0 -17.5 0zM43.75 52.5 a8.75 8.75 0 1 0 17.5 0 a8.75 8.75 0 1 0 -17.5 0z" fill="rgba(66, 99, 134, 1)"></path><path d="M1347.5 1032.5L1627.5 1032.5L1662.5 1067.5L1907.5 1067.5" stroke-width="5.83" stroke="rgba(66, 99, 134, 1)"></path><path d="M1338.75 1032.5 a8.75 8.75 0 1 0 17.5 0 a8.75 8.75 0 1 0 -17.5 0zM1898.75 1067.5 a8.75 8.75 0 1 0 17.5 0 a8.75 8.75 0 1 0 -17.5 0z" fill="rgba(66, 99, 134, 1)"></path><path d="M367.5 227.5L332.5 192.5L297.5 192.5L17.5 472.5L17.5 787.5" stroke-width="5.83" stroke="rgba(66, 99, 134, 1)"></path><path d="M358.75 227.5 a8.75 8.75 0 1 0 17.5 0 a8.75 8.75 0 1 0 -17.5 0zM8.75 787.5 a8.75 8.75 0 1 0 17.5 0 a8.75 8.75 0 1 0 -17.5 0z" fill="rgba(66, 99, 134, 1)"></path><path d="M1347.5 297.5L1697.5 297.5" stroke-width="5.83" stroke="rgba(66, 99, 134, 1)"></path><path d="M1338.75 297.5 a8.75 8.75 0 1 0 17.5 0 a8.75 8.75 0 1 0 -17.5 0zM1688.75 297.5 a8.75 8.75 0 1 0 17.5 0 a8.75 8.75 0 1 0 -17.5 0z" fill="rgba(66, 99, 134, 1)"></path><path d="M1907.5 822.5L1907.5 1032.5" stroke-width="5.83" stroke="rgba(66, 99, 134, 1)"></path><path d="M1898.75 822.5 a8.75 8.75 0 1 0 17.5 0 a8.75 8.75 0 1 0 -17.5 0zM1898.75 1032.5 a8.75 8.75 0 1 0 17.5 0 a8.75 8.75 0 1 0 -17.5 0z" fill="rgba(66, 99, 134, 1)"></path><path d="M367.5 717.5L52.5 1032.5L52.5 1067.5" stroke-width="5.83" stroke="rgba(66, 99, 134, 1)"></path><path d="M358.75 717.5 a8.75 8.75 0 1 0 17.5 0 a8.75 8.75 0 1 0 -17.5 0zM43.75 1067.5 a8.75 8.75 0 1 0 17.5 0 a8.75 8.75 0 1 0 -17.5 0z" fill="rgba(66, 99, 134, 1)"></path><path d="M227.5 332.5L52.5 507.5L52.5 822.5L17.5 857.5L17.5 962.5" stroke-width="5.83" stroke="rgba(66, 99, 134, 1)"></path><path d="M218.75 332.5 a8.75 8.75 0 1 0 17.5 0 a8.75 8.75 0 1 0 -17.5 0zM8.75 962.5 a8.75 8.75 0 1 0 17.5 0 a8.75 8.75 0 1 0 -17.5 0z" fill="rgba(66, 99, 134, 1)"></path><path d="M367.5 472.5L367.5 612.5L297.5 682.5L87.5 682.5" stroke-width="5.83" stroke="rgba(66, 99, 134, 1)"></path><path d="M358.75 472.5 a8.75 8.75 0 1 0 17.5 0 a8.75 8.75 0 1 0 -17.5 0zM78.75 682.5 a8.75 8.75 0 1 0 17.5 0 a8.75 8.75 0 1 0 -17.5 0z" fill="rgba(66, 99, 134, 1)"></path><path d="M717.5 157.5L717.5 17.5" stroke-width="5.83" stroke="rgba(66, 99, 134, 1)"></path><path d="M708.75 157.5 a8.75 8.75 0 1 0 17.5 0 a8.75 8.75 0 1 0 -17.5 0zM708.75 17.5 a8.75 8.75 0 1 0 17.5 0 a8.75 8.75 0 1 0 -17.5 0z" fill="rgba(66, 99, 134, 1)"></path><path d="M297.5 822.5L87.5 1032.5L87.5 1067.5" stroke-width="5.83" stroke="rgba(66, 99, 134, 1)"></path><path d="M288.75 822.5 a8.75 8.75 0 1 0 17.5 0 a8.75 8.75 0 1 0 -17.5 0zM78.75 1067.5 a8.75 8.75 0 1 0 17.5 0 a8.75 8.75 0 1 0 -17.5 0z" fill="rgba(66, 99, 134, 1)"></path><path d="M1697.5 752.5L1697.5 717.5L1907.5 507.5" stroke-width="5.83" stroke="rgba(66, 99, 134, 1)"></path><path d="M1688.75 752.5 a8.75 8.75 0 1 0 17.5 0 a8.75 8.75 0 1 0 -17.5 0zM1898.75 507.5 a8.75 8.75 0 1 0 17.5 0 a8.75 8.75 0 1 0 -17.5 0z" fill="rgba(66, 99, 134, 1)"></path><path d="M647.5 1032.5L752.5 927.5L1102.5 927.5" stroke-width="5.83" stroke="rgba(66, 99, 134, 1)"></path><path d="M638.75 1032.5 a8.75 8.75 0 1 0 17.5 0 a8.75 8.75 0 1 0 -17.5 0zM1093.75 927.5 a8.75 8.75 0 1 0 17.5 0 a8.75 8.75 0 1 0 -17.5 0z" fill="rgba(66, 99, 134, 1)"></path><path d="M892.5 367.5L892.5 402.5L857.5 437.5L822.5 437.5L752.5 367.5" stroke-width="5.83" stroke="rgba(66, 99, 134, 1)"></path><path d="M883.75 367.5 a8.75 8.75 0 1 0 17.5 0 a8.75 8.75 0 1 0 -17.5 0zM743.75 367.5 a8.75 8.75 0 1 0 17.5 0 a8.75 8.75 0 1 0 -17.5 0z" fill="rgba(66, 99, 134, 1)"></path><path d="M542.5 262.5L542.5 402.5L402.5 542.5L402.5 577.5" stroke-width="5.83" stroke="rgba(66, 99, 134, 1)"></path><path d="M533.75 262.5 a8.75 8.75 0 1 0 17.5 0 a8.75 8.75 0 1 0 -17.5 0zM393.75 577.5 a8.75 8.75 0 1 0 17.5 0 a8.75 8.75 0 1 0 -17.5 0z" fill="rgba(66, 99, 134, 1)"></path><path d="M1802.5 997.5L1802.5 962.5L1872.5 892.5L1872.5 787.5L1767.5 682.5" stroke-width="5.83" stroke="rgba(66, 99, 134, 1)"></path><path d="M1793.75 997.5 a8.75 8.75 0 1 0 17.5 0 a8.75 8.75 0 1 0 -17.5 0zM1758.75 682.5 a8.75 8.75 0 1 0 17.5 0 a8.75 8.75 0 1 0 -17.5 0z" fill="rgba(66, 99, 134, 1)"></path><path d="M1242.5 367.5L1697.5 367.5" stroke-width="5.83" stroke="rgba(66, 99, 134, 1)"></path><path d="M1233.75 367.5 a8.75 8.75 0 1 0 17.5 0 a8.75 8.75 0 1 0 -17.5 0zM1688.75 367.5 a8.75 8.75 0 1 0 17.5 0 a8.75 8.75 0 1 0 -17.5 0z" fill="rgba(66, 99, 134, 1)"></path><path d="M1172.5 1067.5L1172.5 1032.5L1242.5 962.5L1277.5 962.5" stroke-width="5.83" stroke="rgba(66, 99, 134, 1)"></path><path d="M1163.75 1067.5 a8.75 8.75 0 1 0 17.5 0 a8.75 8.75 0 1 0 -17.5 0zM1268.75 962.5 a8.75 8.75 0 1 0 17.5 0 a8.75 8.75 0 1 0 -17.5 0z" fill="rgba(66, 99, 134, 1)"></path><path d="M1417.5 857.5L1522.5 752.5L1522.5 717.5L1487.5 682.5L1347.5 682.5L1242.5 787.5L1242.5 857.5L1312.5 927.5L1347.5 927.5L1382.5 892.5L1382.5 857.5" stroke-width="5.83" stroke="rgba(66, 99, 134, 1)"></path><path d="M1408.75 857.5 a8.75 8.75 0 1 0 17.5 0 a8.75 8.75 0 1 0 -17.5 0zM1373.75 857.5 a8.75 8.75 0 1 0 17.5 0 a8.75 8.75 0 1 0 -17.5 0z" fill="rgba(66, 99, 134, 1)"></path><path d="M1697.5 52.5L1872.5 52.5" stroke-width="5.83" stroke="rgba(66, 99, 134, 1)"></path><path d="M1688.75 52.5 a8.75 8.75 0 1 0 17.5 0 a8.75 8.75 0 1 0 -17.5 0zM1863.75 52.5 a8.75 8.75 0 1 0 17.5 0 a8.75 8.75 0 1 0 -17.5 0z" fill="rgba(66, 99, 134, 1)"></path><path d="M1242.5 1067.5L1242.5 997.5" stroke-width="5.83" stroke="rgba(66, 99, 134, 1)"></path><path d="M1233.75 1067.5 a8.75 8.75 0 1 0 17.5 0 a8.75 8.75 0 1 0 -17.5 0zM1233.75 997.5 a8.75 8.75 0 1 0 17.5 0 a8.75 8.75 0 1 0 -17.5 0z" fill="rgba(66, 99, 134, 1)"></path><path d="M1592.5 332.5L1242.5 332.5L1102.5 472.5L1032.5 472.5" stroke-width="5.83" stroke="rgba(66, 99, 134, 1)"></path><path d="M1583.75 332.5 a8.75 8.75 0 1 0 17.5 0 a8.75 8.75 0 1 0 -17.5 0zM1023.75 472.5 a8.75 8.75 0 1 0 17.5 0 a8.75 8.75 0 1 0 -17.5 0z" fill="rgba(66, 99, 134, 1)"></path><path d="M472.5 927.5L647.5 752.5" stroke-width="5.83" stroke="rgba(66, 99, 134, 1)"></path><path d="M463.75 927.5 a8.75 8.75 0 1 0 17.5 0 a8.75 8.75 0 1 0 -17.5 0zM638.75 752.5 a8.75 8.75 0 1 0 17.5 0 a8.75 8.75 0 1 0 -17.5 0z" fill="rgba(66, 99, 134, 1)"></path><path d="M402.5 1032.5L367.5 1032.5L332.5 1067.5L227.5 1067.5L157.5 997.5" stroke-width="5.83" stroke="rgba(66, 99, 134, 1)"></path><path d="M393.75 1032.5 a8.75 8.75 0 1 0 17.5 0 a8.75 8.75 0 1 0 -17.5 0zM148.75 997.5 a8.75 8.75 0 1 0 17.5 0 a8.75 8.75 0 1 0 -17.5 0z" fill="rgba(66, 99, 134, 1)"></path><path d="M1697.5 87.5L1592.5 192.5L1592.5 262.5" stroke-width="5.83" stroke="rgba(66, 99, 134, 1)"></path><path d="M1688.75 87.5 a8.75 8.75 0 1 0 17.5 0 a8.75 8.75 0 1 0 -17.5 0zM1583.75 262.5 a8.75 8.75 0 1 0 17.5 0 a8.75 8.75 0 1 0 -17.5 0z" fill="rgba(66, 99, 134, 1)"></path><path d="M1207.5 332.5L1312.5 227.5L1312.5 52.5" stroke-width="5.83" stroke="rgba(66, 99, 134, 1)"></path><path d="M1198.75 332.5 a8.75 8.75 0 1 0 17.5 0 a8.75 8.75 0 1 0 -17.5 0zM1303.75 52.5 a8.75 8.75 0 1 0 17.5 0 a8.75 8.75 0 1 0 -17.5 0z" fill="rgba(66, 99, 134, 1)"></path><path d="M927.5 787.5L927.5 892.5" stroke-width="5.83" stroke="rgba(66, 99, 134, 1)"></path><path d="M918.75 787.5 a8.75 8.75 0 1 0 17.5 0 a8.75 8.75 0 1 0 -17.5 0zM918.75 892.5 a8.75 8.75 0 1 0 17.5 0 a8.75 8.75 0 1 0 -17.5 0z" fill="rgba(66, 99, 134, 1)"></path><path d="M1242.5 157.5L1207.5 157.5L1067.5 297.5L1067.5 437.5" stroke-width="5.83" stroke="rgba(66, 99, 134, 1)"></path><path d="M1233.75 157.5 a8.75 8.75 0 1 0 17.5 0 a8.75 8.75 0 1 0 -17.5 0zM1058.75 437.5 a8.75 8.75 0 1 0 17.5 0 a8.75 8.75 0 1 0 -17.5 0z" fill="rgba(66, 99, 134, 1)"></path><path d="M52.5 122.5L52.5 192.5L122.5 262.5L157.5 262.5L192.5 227.5L192.5 52.5" stroke-width="5.83" stroke="rgba(66, 99, 134, 1)"></path><path d="M43.75 122.5 a8.75 8.75 0 1 0 17.5 0 a8.75 8.75 0 1 0 -17.5 0zM183.75 52.5 a8.75 8.75 0 1 0 17.5 0 a8.75 8.75 0 1 0 -17.5 0z" fill="rgba(66, 99, 134, 1)"></path><path d="M1382.5 402.5L1207.5 402.5L1137.5 472.5" stroke-width="5.83" stroke="rgba(66, 99, 134, 1)"></path><path d="M1373.75 402.5 a8.75 8.75 0 1 0 17.5 0 a8.75 8.75 0 1 0 -17.5 0zM1128.75 472.5 a8.75 8.75 0 1 0 17.5 0 a8.75 8.75 0 1 0 -17.5 0z" fill="rgba(66, 99, 134, 1)"></path><path d="M997.5 752.5L927.5 752.5" stroke-width="5.83" stroke="rgba(66, 99, 134, 1)"></path><path d="M988.75 752.5 a8.75 8.75 0 1 0 17.5 0 a8.75 8.75 0 1 0 -17.5 0zM918.75 752.5 a8.75 8.75 0 1 0 17.5 0 a8.75 8.75 0 1 0 -17.5 0z" fill="rgba(66, 99, 134, 1)"></path><path d="M1767.5 227.5L1767.5 367.5" stroke-width="5.83" stroke="rgba(66, 99, 134, 1)"></path><path d="M1758.75 227.5 a8.75 8.75 0 1 0 17.5 0 a8.75 8.75 0 1 0 -17.5 0zM1758.75 367.5 a8.75 8.75 0 1 0 17.5 0 a8.75 8.75 0 1 0 -17.5 0z" fill="rgba(66, 99, 134, 1)"></path><path d="M612.5 122.5L612.5 157.5L717.5 262.5L717.5 332.5L542.5 507.5" stroke-width="5.83" stroke="rgba(66, 99, 134, 1)"></path><path d="M603.75 122.5 a8.75 8.75 0 1 0 17.5 0 a8.75 8.75 0 1 0 -17.5 0zM533.75 507.5 a8.75 8.75 0 1 0 17.5 0 a8.75 8.75 0 1 0 -17.5 0z" fill="rgba(66, 99, 134, 1)"></path><path d="M157.5 822.5L157.5 717.5" stroke-width="5.83" stroke="rgba(66, 99, 134, 1)"></path><path d="M148.75 822.5 a8.75 8.75 0 1 0 17.5 0 a8.75 8.75 0 1 0 -17.5 0zM148.75 717.5 a8.75 8.75 0 1 0 17.5 0 a8.75 8.75 0 1 0 -17.5 0z" fill="rgba(66, 99, 134, 1)"></path><path d="M717.5 612.5L612.5 507.5" stroke-width="5.83" stroke="rgba(66, 99, 134, 1)"></path><path d="M708.75 612.5 a8.75 8.75 0 1 0 17.5 0 a8.75 8.75 0 1 0 -17.5 0zM603.75 507.5 a8.75 8.75 0 1 0 17.5 0 a8.75 8.75 0 1 0 -17.5 0z" fill="rgba(66, 99, 134, 1)"></path><path d="M1487.5 402.5L1522.5 437.5L1522.5 472.5" stroke-width="5.83" stroke="rgba(66, 99, 134, 1)"></path><path d="M1478.75 402.5 a8.75 8.75 0 1 0 17.5 0 a8.75 8.75 0 1 0 -17.5 0zM1513.75 472.5 a8.75 8.75 0 1 0 17.5 0 a8.75 8.75 0 1 0 -17.5 0z" fill="rgba(66, 99, 134, 1)"></path><path d="M682.5 892.5L682.5 857.5L647.5 822.5L612.5 822.5L507.5 927.5L507.5 1067.5" stroke-width="5.83" stroke="rgba(66, 99, 134, 1)"></path><path d="M673.75 892.5 a8.75 8.75 0 1 0 17.5 0 a8.75 8.75 0 1 0 -17.5 0zM498.75 1067.5 a8.75 8.75 0 1 0 17.5 0 a8.75 8.75 0 1 0 -17.5 0z" fill="rgba(66, 99, 134, 1)"></path><path d="M962.5 787.5L1067.5 787.5L1207.5 927.5L1207.5 962.5L1172.5 997.5" stroke-width="5.83" stroke="rgba(66, 99, 134, 1)"></path><path d="M953.75 787.5 a8.75 8.75 0 1 0 17.5 0 a8.75 8.75 0 1 0 -17.5 0zM1163.75 997.5 a8.75 8.75 0 1 0 17.5 0 a8.75 8.75 0 1 0 -17.5 0z" fill="rgba(66, 99, 134, 1)"></path><path d="M1522.5 87.5L1557.5 87.5L1592.5 122.5L1627.5 122.5L1662.5 87.5L1662.5 52.5" stroke-width="5.83" stroke="rgba(66, 99, 134, 1)"></path><path d="M1513.75 87.5 a8.75 8.75 0 1 0 17.5 0 a8.75 8.75 0 1 0 -17.5 0zM1653.75 52.5 a8.75 8.75 0 1 0 17.5 0 a8.75 8.75 0 1 0 -17.5 0z" fill="rgba(66, 99, 134, 1)"></path><path d="M1277.5 157.5L1277.5 227.5L1102.5 402.5L1102.5 437.5" stroke-width="5.83" stroke="rgba(66, 99, 134, 1)"></path><path d="M1268.75 157.5 a8.75 8.75 0 1 0 17.5 0 a8.75 8.75 0 1 0 -17.5 0zM1093.75 437.5 a8.75 8.75 0 1 0 17.5 0 a8.75 8.75 0 1 0 -17.5 0z" fill="rgba(66, 99, 134, 1)"></path><path d="M647.5 612.5L647.5 682.5L787.5 822.5" stroke-width="5.83" stroke="rgba(66, 99, 134, 1)"></path><path d="M638.75 612.5 a8.75 8.75 0 1 0 17.5 0 a8.75 8.75 0 1 0 -17.5 0zM778.75 822.5 a8.75 8.75 0 1 0 17.5 0 a8.75 8.75 0 1 0 -17.5 0z" fill="rgba(66, 99, 134, 1)"></path><path d="M402.5 472.5L437.5 472.5L507.5 402.5L507.5 192.5" stroke-width="5.83" stroke="rgba(66, 99, 134, 1)"></path><path d="M393.75 472.5 a8.75 8.75 0 1 0 17.5 0 a8.75 8.75 0 1 0 -17.5 0zM498.75 192.5 a8.75 8.75 0 1 0 17.5 0 a8.75 8.75 0 1 0 -17.5 0z" fill="rgba(66, 99, 134, 1)"></path><path d="M1557.5 962.5L1382.5 962.5L1347.5 997.5" stroke-width="5.83" stroke="rgba(66, 99, 134, 1)"></path><path d="M1548.75 962.5 a8.75 8.75 0 1 0 17.5 0 a8.75 8.75 0 1 0 -17.5 0zM1338.75 997.5 a8.75 8.75 0 1 0 17.5 0 a8.75 8.75 0 1 0 -17.5 0z" fill="rgba(66, 99, 134, 1)"></path><path d="M1172.5 577.5L1242.5 577.5" stroke-width="5.83" stroke="rgba(66, 99, 134, 1)"></path><path d="M1163.75 577.5 a8.75 8.75 0 1 0 17.5 0 a8.75 8.75 0 1 0 -17.5 0zM1233.75 577.5 a8.75 8.75 0 1 0 17.5 0 a8.75 8.75 0 1 0 -17.5 0z" fill="rgba(66, 99, 134, 1)"></path><path d="M1242.5 682.5L1207.5 717.5L1102.5 717.5" stroke-width="5.83" stroke="rgba(66, 99, 134, 1)"></path><path d="M1233.75 682.5 a8.75 8.75 0 1 0 17.5 0 a8.75 8.75 0 1 0 -17.5 0zM1093.75 717.5 a8.75 8.75 0 1 0 17.5 0 a8.75 8.75 0 1 0 -17.5 0z" fill="rgba(66, 99, 134, 1)"></path><path d="M227.5 962.5L227.5 1032.5" stroke-width="5.83" stroke="rgba(66, 99, 134, 1)"></path><path d="M218.75 962.5 a8.75 8.75 0 1 0 17.5 0 a8.75 8.75 0 1 0 -17.5 0zM218.75 1032.5 a8.75 8.75 0 1 0 17.5 0 a8.75 8.75 0 1 0 -17.5 0z" fill="rgba(66, 99, 134, 1)"></path><path d="M332.5 262.5L472.5 262.5" stroke-width="5.83" stroke="rgba(66, 99, 134, 1)"></path><path d="M323.75 262.5 a8.75 8.75 0 1 0 17.5 0 a8.75 8.75 0 1 0 -17.5 0zM463.75 262.5 a8.75 8.75 0 1 0 17.5 0 a8.75 8.75 0 1 0 -17.5 0z" fill="rgba(66, 99, 134, 1)"></path><path d="M717.5 997.5L647.5 1067.5L612.5 1067.5" stroke-width="5.83" stroke="rgba(66, 99, 134, 1)"></path><path d="M708.75 997.5 a8.75 8.75 0 1 0 17.5 0 a8.75 8.75 0 1 0 -17.5 0zM603.75 1067.5 a8.75 8.75 0 1 0 17.5 0 a8.75 8.75 0 1 0 -17.5 0z" fill="rgba(66, 99, 134, 1)"></path><path d="M262.5 437.5L157.5 437.5L87.5 507.5L87.5 647.5" stroke-width="5.83" stroke="rgba(66, 99, 134, 1)"></path><path d="M253.75 437.5 a8.75 8.75 0 1 0 17.5 0 a8.75 8.75 0 1 0 -17.5 0zM78.75 647.5 a8.75 8.75 0 1 0 17.5 0 a8.75 8.75 0 1 0 -17.5 0z" fill="rgba(66, 99, 134, 1)"></path><path d="M752.5 682.5L822.5 752.5L857.5 752.5L892.5 717.5L892.5 612.5" stroke-width="5.83" stroke="rgba(66, 99, 134, 1)"></path><path d="M743.75 682.5 a8.75 8.75 0 1 0 17.5 0 a8.75 8.75 0 1 0 -17.5 0zM883.75 612.5 a8.75 8.75 0 1 0 17.5 0 a8.75 8.75 0 1 0 -17.5 0z" fill="rgba(66, 99, 134, 1)"></path><path d="M1382.5 787.5L1347.5 752.5L1347.5 717.5" stroke-width="5.83" stroke="rgba(66, 99, 134, 1)"></path><path d="M1373.75 787.5 a8.75 8.75 0 1 0 17.5 0 a8.75 8.75 0 1 0 -17.5 0zM1338.75 717.5 a8.75 8.75 0 1 0 17.5 0 a8.75 8.75 0 1 0 -17.5 0z" fill="rgba(66, 99, 134, 1)"></path><path d="M717.5 507.5L927.5 507.5" stroke-width="5.83" stroke="rgba(66, 99, 134, 1)"></path><path d="M708.75 507.5 a8.75 8.75 0 1 0 17.5 0 a8.75 8.75 0 1 0 -17.5 0zM918.75 507.5 a8.75 8.75 0 1 0 17.5 0 a8.75 8.75 0 1 0 -17.5 0z" fill="rgba(66, 99, 134, 1)"></path><path d="M962.5 1067.5L857.5 962.5L752.5 962.5" stroke-width="5.83" stroke="rgba(66, 99, 134, 1)"></path><path d="M953.75 1067.5 a8.75 8.75 0 1 0 17.5 0 a8.75 8.75 0 1 0 -17.5 0zM743.75 962.5 a8.75 8.75 0 1 0 17.5 0 a8.75 8.75 0 1 0 -17.5 0z" fill="rgba(66, 99, 134, 1)"></path><path d="M1067.5 892.5L962.5 892.5" stroke-width="5.83" stroke="rgba(66, 99, 134, 1)"></path><path d="M1058.75 892.5 a8.75 8.75 0 1 0 17.5 0 a8.75 8.75 0 1 0 -17.5 0zM953.75 892.5 a8.75 8.75 0 1 0 17.5 0 a8.75 8.75 0 1 0 -17.5 0z" fill="rgba(66, 99, 134, 1)"></path><path d="M1382.5 752.5L1417.5 787.5L1417.5 822.5" stroke-width="5.83" stroke="rgba(66, 99, 134, 1)"></path><path d="M1373.75 752.5 a8.75 8.75 0 1 0 17.5 0 a8.75 8.75 0 1 0 -17.5 0zM1408.75 822.5 a8.75 8.75 0 1 0 17.5 0 a8.75 8.75 0 1 0 -17.5 0z" fill="rgba(66, 99, 134, 1)"></path><path d="M927.5 157.5L857.5 87.5L857.5 17.5" stroke-width="5.83" stroke="rgba(66, 99, 134, 1)"></path><path d="M918.75 157.5 a8.75 8.75 0 1 0 17.5 0 a8.75 8.75 0 1 0 -17.5 0zM848.75 17.5 a8.75 8.75 0 1 0 17.5 0 a8.75 8.75 0 1 0 -17.5 0z" fill="rgba(66, 99, 134, 1)"></path><path d="M1837.5 402.5L1837.5 507.5L1767.5 577.5" stroke-width="5.83" stroke="rgba(66, 99, 134, 1)"></path><path d="M1828.75 402.5 a8.75 8.75 0 1 0 17.5 0 a8.75 8.75 0 1 0 -17.5 0zM1758.75 577.5 a8.75 8.75 0 1 0 17.5 0 a8.75 8.75 0 1 0 -17.5 0z" fill="rgba(66, 99, 134, 1)"></path><path d="M262.5 87.5L297.5 122.5L472.5 122.5" stroke-width="5.83" stroke="rgba(66, 99, 134, 1)"></path><path d="M253.75 87.5 a8.75 8.75 0 1 0 17.5 0 a8.75 8.75 0 1 0 -17.5 0zM463.75 122.5 a8.75 8.75 0 1 0 17.5 0 a8.75 8.75 0 1 0 -17.5 0z" fill="rgba(66, 99, 134, 1)"></path><path d="M1557.5 997.5L1382.5 997.5" stroke-width="5.83" stroke="rgba(66, 99, 134, 1)"></path><path d="M1548.75 997.5 a8.75 8.75 0 1 0 17.5 0 a8.75 8.75 0 1 0 -17.5 0zM1373.75 997.5 a8.75 8.75 0 1 0 17.5 0 a8.75 8.75 0 1 0 -17.5 0z" fill="rgba(66, 99, 134, 1)"></path><path d="M1697.5 612.5L1697.5 577.5L1662.5 542.5L1557.5 542.5" stroke-width="5.83" stroke="rgba(66, 99, 134, 1)"></path><path d="M1688.75 612.5 a8.75 8.75 0 1 0 17.5 0 a8.75 8.75 0 1 0 -17.5 0zM1548.75 542.5 a8.75 8.75 0 1 0 17.5 0 a8.75 8.75 0 1 0 -17.5 0z" fill="rgba(66, 99, 134, 1)"></path><path d="M472.5 227.5L437.5 192.5L367.5 192.5" stroke-width="5.83" stroke="rgba(66, 99, 134, 1)"></path><path d="M463.75 227.5 a8.75 8.75 0 1 0 17.5 0 a8.75 8.75 0 1 0 -17.5 0zM358.75 192.5 a8.75 8.75 0 1 0 17.5 0 a8.75 8.75 0 1 0 -17.5 0z" fill="rgba(66, 99, 134, 1)"></path><path d="M1242.5 717.5L1277.5 682.5L1312.5 682.5" stroke-width="5.83" stroke="rgba(66, 99, 134, 1)"></path><path d="M1233.75 717.5 a8.75 8.75 0 1 0 17.5 0 a8.75 8.75 0 1 0 -17.5 0zM1303.75 682.5 a8.75 8.75 0 1 0 17.5 0 a8.75 8.75 0 1 0 -17.5 0z" fill="rgba(66, 99, 134, 1)"></path><path d="M1382.5 717.5L1487.5 717.5" stroke-width="5.83" stroke="rgba(66, 99, 134, 1)"></path><path d="M1373.75 717.5 a8.75 8.75 0 1 0 17.5 0 a8.75 8.75 0 1 0 -17.5 0zM1478.75 717.5 a8.75 8.75 0 1 0 17.5 0 a8.75 8.75 0 1 0 -17.5 0z" fill="rgba(66, 99, 134, 1)"></path><path d="M1557.5 857.5L1557.5 927.5L1627.5 997.5" stroke-width="5.83" stroke="rgba(66, 99, 134, 1)"></path><path d="M1548.75 857.5 a8.75 8.75 0 1 0 17.5 0 a8.75 8.75 0 1 0 -17.5 0zM1618.75 997.5 a8.75 8.75 0 1 0 17.5 0 a8.75 8.75 0 1 0 -17.5 0z" fill="rgba(66, 99, 134, 1)"></path><path d="M1067.5 962.5L892.5 962.5" stroke-width="5.83" stroke="rgba(66, 99, 134, 1)"></path><path d="M1058.75 962.5 a8.75 8.75 0 1 0 17.5 0 a8.75 8.75 0 1 0 -17.5 0zM883.75 962.5 a8.75 8.75 0 1 0 17.5 0 a8.75 8.75 0 1 0 -17.5 0z" fill="rgba(66, 99, 134, 1)"></path><path d="M577.5 1032.5L682.5 927.5" stroke-width="5.83" stroke="rgba(66, 99, 134, 1)"></path><path d="M568.75 1032.5 a8.75 8.75 0 1 0 17.5 0 a8.75 8.75 0 1 0 -17.5 0zM673.75 927.5 a8.75 8.75 0 1 0 17.5 0 a8.75 8.75 0 1 0 -17.5 0z" fill="rgba(66, 99, 134, 1)"></path><path d="M577.5 52.5L577.5 122.5" stroke-width="5.83" stroke="rgba(66, 99, 134, 1)"></path><path d="M568.75 52.5 a8.75 8.75 0 1 0 17.5 0 a8.75 8.75 0 1 0 -17.5 0zM568.75 122.5 a8.75 8.75 0 1 0 17.5 0 a8.75 8.75 0 1 0 -17.5 0z" fill="rgba(66, 99, 134, 1)"></path><path d="M1347.5 227.5L1347.5 262.5L1312.5 297.5L1277.5 297.5" stroke-width="5.83" stroke="rgba(66, 99, 134, 1)"></path><path d="M1338.75 227.5 a8.75 8.75 0 1 0 17.5 0 a8.75 8.75 0 1 0 -17.5 0zM1268.75 297.5 a8.75 8.75 0 1 0 17.5 0 a8.75 8.75 0 1 0 -17.5 0z" fill="rgba(66, 99, 134, 1)"></path><path d="M1837.5 647.5L1837.5 612.5L1907.5 542.5" stroke-width="5.83" stroke="rgba(66, 99, 134, 1)"></path><path d="M1828.75 647.5 a8.75 8.75 0 1 0 17.5 0 a8.75 8.75 0 1 0 -17.5 0zM1898.75 542.5 a8.75 8.75 0 1 0 17.5 0 a8.75 8.75 0 1 0 -17.5 0z" fill="rgba(66, 99, 134, 1)"></path><path d="M1522.5 192.5L1382.5 52.5L1347.5 52.5" stroke-width="5.83" stroke="rgba(66, 99, 134, 1)"></path><path d="M1513.75 192.5 a8.75 8.75 0 1 0 17.5 0 a8.75 8.75 0 1 0 -17.5 0zM1338.75 52.5 a8.75 8.75 0 1 0 17.5 0 a8.75 8.75 0 1 0 -17.5 0z" fill="rgba(66, 99, 134, 1)"></path><path d="M367.5 367.5L367.5 437.5L297.5 507.5L122.5 507.5" stroke-width="5.83" stroke="rgba(66, 99, 134, 1)"></path><path d="M358.75 367.5 a8.75 8.75 0 1 0 17.5 0 a8.75 8.75 0 1 0 -17.5 0zM113.75 507.5 a8.75 8.75 0 1 0 17.5 0 a8.75 8.75 0 1 0 -17.5 0z" fill="rgba(66, 99, 134, 1)"></path><path d="M297.5 437.5L332.5 402.5L332.5 297.5L297.5 262.5L262.5 262.5L227.5 297.5" stroke-width="5.83" stroke="rgba(66, 99, 134, 1)"></path><path d="M288.75 437.5 a8.75 8.75 0 1 0 17.5 0 a8.75 8.75 0 1 0 -17.5 0zM218.75 297.5 a8.75 8.75 0 1 0 17.5 0 a8.75 8.75 0 1 0 -17.5 0z" fill="rgba(66, 99, 134, 1)"></path><path d="M1557.5 52.5L1592.5 87.5L1627.5 87.5" stroke-width="5.83" stroke="rgba(66, 99, 134, 1)"></path><path d="M1548.75 52.5 a8.75 8.75 0 1 0 17.5 0 a8.75 8.75 0 1 0 -17.5 0zM1618.75 87.5 a8.75 8.75 0 1 0 17.5 0 a8.75 8.75 0 1 0 -17.5 0z" fill="rgba(66, 99, 134, 1)"></path><path d="M87.5 122.5L87.5 192.5L122.5 227.5L157.5 227.5" stroke-width="5.83" stroke="rgba(66, 99, 134, 1)"></path><path d="M78.75 122.5 a8.75 8.75 0 1 0 17.5 0 a8.75 8.75 0 1 0 -17.5 0zM148.75 227.5 a8.75 8.75 0 1 0 17.5 0 a8.75 8.75 0 1 0 -17.5 0z" fill="rgba(66, 99, 134, 1)"></path><path d="M87.5 332.5L17.5 402.5L17.5 437.5" stroke-width="5.83" stroke="rgba(66, 99, 134, 1)"></path><path d="M78.75 332.5 a8.75 8.75 0 1 0 17.5 0 a8.75 8.75 0 1 0 -17.5 0zM8.75 437.5 a8.75 8.75 0 1 0 17.5 0 a8.75 8.75 0 1 0 -17.5 0z" fill="rgba(66, 99, 134, 1)"></path><path d="M297.5 927.5L402.5 822.5L507.5 822.5L542.5 787.5L542.5 717.5L472.5 647.5L437.5 647.5L402.5 682.5L402.5 787.5L297.5 892.5" stroke-width="5.83" stroke="rgba(66, 99, 134, 1)"></path><path d="M288.75 927.5 a8.75 8.75 0 1 0 17.5 0 a8.75 8.75 0 1 0 -17.5 0zM288.75 892.5 a8.75 8.75 0 1 0 17.5 0 a8.75 8.75 0 1 0 -17.5 0z" fill="rgba(66, 99, 134, 1)"></path><path d="M1627.5 892.5L1627.5 962.5" stroke-width="5.83" stroke="rgba(66, 99, 134, 1)"></path><path d="M1618.75 892.5 a8.75 8.75 0 1 0 17.5 0 a8.75 8.75 0 1 0 -17.5 0zM1618.75 962.5 a8.75 8.75 0 1 0 17.5 0 a8.75 8.75 0 1 0 -17.5 0z" fill="rgba(66, 99, 134, 1)"></path><path d="M1802.5 752.5L1732.5 752.5L1697.5 787.5L1697.5 927.5L1802.5 1032.5L1837.5 1032.5L1872.5 997.5L1872.5 962.5" stroke-width="5.83" stroke="rgba(66, 99, 134, 1)"></path><path d="M1793.75 752.5 a8.75 8.75 0 1 0 17.5 0 a8.75 8.75 0 1 0 -17.5 0zM1863.75 962.5 a8.75 8.75 0 1 0 17.5 0 a8.75 8.75 0 1 0 -17.5 0z" fill="rgba(66, 99, 134, 1)"></path><path d="M1802.5 122.5L1732.5 192.5" stroke-width="5.83" stroke="rgba(66, 99, 134, 1)"></path><path d="M1793.75 122.5 a8.75 8.75 0 1 0 17.5 0 a8.75 8.75 0 1 0 -17.5 0zM1723.75 192.5 a8.75 8.75 0 1 0 17.5 0 a8.75 8.75 0 1 0 -17.5 0z" fill="rgba(66, 99, 134, 1)"></path><path d="M1312.5 472.5L1172.5 472.5" stroke-width="5.83" stroke="rgba(66, 99, 134, 1)"></path><path d="M1303.75 472.5 a8.75 8.75 0 1 0 17.5 0 a8.75 8.75 0 1 0 -17.5 0zM1163.75 472.5 a8.75 8.75 0 1 0 17.5 0 a8.75 8.75 0 1 0 -17.5 0z" fill="rgba(66, 99, 134, 1)"></path><path d="M192.5 472.5L297.5 472.5" stroke-width="5.83" stroke="rgba(66, 99, 134, 1)"></path><path d="M183.75 472.5 a8.75 8.75 0 1 0 17.5 0 a8.75 8.75 0 1 0 -17.5 0zM288.75 472.5 a8.75 8.75 0 1 0 17.5 0 a8.75 8.75 0 1 0 -17.5 0z" fill="rgba(66, 99, 134, 1)"></path><path d="M787.5 542.5L927.5 542.5" stroke-width="5.83" stroke="rgba(66, 99, 134, 1)"></path><path d="M778.75 542.5 a8.75 8.75 0 1 0 17.5 0 a8.75 8.75 0 1 0 -17.5 0zM918.75 542.5 a8.75 8.75 0 1 0 17.5 0 a8.75 8.75 0 1 0 -17.5 0z" fill="rgba(66, 99, 134, 1)"></path><path d="M857.5 892.5L857.5 822.5L892.5 787.5" stroke-width="5.83" stroke="rgba(66, 99, 134, 1)"></path><path d="M848.75 892.5 a8.75 8.75 0 1 0 17.5 0 a8.75 8.75 0 1 0 -17.5 0zM883.75 787.5 a8.75 8.75 0 1 0 17.5 0 a8.75 8.75 0 1 0 -17.5 0z" fill="rgba(66, 99, 134, 1)"></path><path d="M367.5 892.5L367.5 997.5L332.5 1032.5L262.5 1032.5" stroke-width="5.83" stroke="rgba(66, 99, 134, 1)"></path><path d="M358.75 892.5 a8.75 8.75 0 1 0 17.5 0 a8.75 8.75 0 1 0 -17.5 0zM253.75 1032.5 a8.75 8.75 0 1 0 17.5 0 a8.75 8.75 0 1 0 -17.5 0z" fill="rgba(66, 99, 134, 1)"></path><path d="M227.5 647.5L122.5 542.5" stroke-width="5.83" stroke="rgba(66, 99, 134, 1)"></path><path d="M218.75 647.5 a8.75 8.75 0 1 0 17.5 0 a8.75 8.75 0 1 0 -17.5 0zM113.75 542.5 a8.75 8.75 0 1 0 17.5 0 a8.75 8.75 0 1 0 -17.5 0z" fill="rgba(66, 99, 134, 1)"></path><path d="M1487.5 192.5L1487.5 262.5" stroke-width="5.83" stroke="rgba(66, 99, 134, 1)"></path><path d="M1478.75 192.5 a8.75 8.75 0 1 0 17.5 0 a8.75 8.75 0 1 0 -17.5 0zM1478.75 262.5 a8.75 8.75 0 1 0 17.5 0 a8.75 8.75 0 1 0 -17.5 0z" fill="rgba(66, 99, 134, 1)"></path><path d="M1627.5 402.5L1592.5 437.5L1592.5 472.5" stroke-width="5.83" stroke="rgba(66, 99, 134, 1)"></path><path d="M1618.75 402.5 a8.75 8.75 0 1 0 17.5 0 a8.75 8.75 0 1 0 -17.5 0zM1583.75 472.5 a8.75 8.75 0 1 0 17.5 0 a8.75 8.75 0 1 0 -17.5 0z" fill="rgba(66, 99, 134, 1)"></path><path d="M822.5 647.5L647.5 472.5" stroke-width="5.83" stroke="rgba(66, 99, 134, 1)"></path><path d="M813.75 647.5 a8.75 8.75 0 1 0 17.5 0 a8.75 8.75 0 1 0 -17.5 0zM638.75 472.5 a8.75 8.75 0 1 0 17.5 0 a8.75 8.75 0 1 0 -17.5 0z" fill="rgba(66, 99, 134, 1)"></path><path d="M1627.5 822.5L1557.5 822.5" stroke-width="5.83" stroke="rgba(66, 99, 134, 1)"></path><path d="M1618.75 822.5 a8.75 8.75 0 1 0 17.5 0 a8.75 8.75 0 1 0 -17.5 0zM1548.75 822.5 a8.75 8.75 0 1 0 17.5 0 a8.75 8.75 0 1 0 -17.5 0z" fill="rgba(66, 99, 134, 1)"></path><path d="M612.5 402.5L577.5 402.5L542.5 437.5" stroke-width="5.83" stroke="rgba(66, 99, 134, 1)"></path><path d="M603.75 402.5 a8.75 8.75 0 1 0 17.5 0 a8.75 8.75 0 1 0 -17.5 0zM533.75 437.5 a8.75 8.75 0 1 0 17.5 0 a8.75 8.75 0 1 0 -17.5 0z" fill="rgba(66, 99, 134, 1)"></path><path d="M1172.5 157.5L1277.5 52.5" stroke-width="5.83" stroke="rgba(66, 99, 134, 1)"></path><path d="M1163.75 157.5 a8.75 8.75 0 1 0 17.5 0 a8.75 8.75 0 1 0 -17.5 0zM1268.75 52.5 a8.75 8.75 0 1 0 17.5 0 a8.75 8.75 0 1 0 -17.5 0z" fill="rgba(66, 99, 134, 1)"></path><path d="M577.5 647.5L577.5 542.5" stroke-width="5.83" stroke="rgba(66, 99, 134, 1)"></path><path d="M568.75 647.5 a8.75 8.75 0 1 0 17.5 0 a8.75 8.75 0 1 0 -17.5 0zM568.75 542.5 a8.75 8.75 0 1 0 17.5 0 a8.75 8.75 0 1 0 -17.5 0z" fill="rgba(66, 99, 134, 1)"></path><path d="M402.5 87.5L367.5 52.5L227.5 52.5" stroke-width="5.83" stroke="rgba(66, 99, 134, 1)"></path><path d="M393.75 87.5 a8.75 8.75 0 1 0 17.5 0 a8.75 8.75 0 1 0 -17.5 0zM218.75 52.5 a8.75 8.75 0 1 0 17.5 0 a8.75 8.75 0 1 0 -17.5 0z" fill="rgba(66, 99, 134, 1)"></path><path d="M1312.5 437.5L1207.5 437.5" stroke-width="5.83" stroke="rgba(66, 99, 134, 1)"></path><path d="M1303.75 437.5 a8.75 8.75 0 1 0 17.5 0 a8.75 8.75 0 1 0 -17.5 0zM1198.75 437.5 a8.75 8.75 0 1 0 17.5 0 a8.75 8.75 0 1 0 -17.5 0z" fill="rgba(66, 99, 134, 1)"></path><path d="M1067.5 1067.5L1067.5 997.5L1102.5 962.5" stroke-width="5.83" stroke="rgba(66, 99, 134, 1)"></path><path d="M1058.75 1067.5 a8.75 8.75 0 1 0 17.5 0 a8.75 8.75 0 1 0 -17.5 0zM1093.75 962.5 a8.75 8.75 0 1 0 17.5 0 a8.75 8.75 0 1 0 -17.5 0z" fill="rgba(66, 99, 134, 1)"></path><path d="M507.5 787.5L507.5 717.5L472.5 682.5L437.5 682.5" stroke-width="5.83" stroke="rgba(66, 99, 134, 1)"></path><path d="M498.75 787.5 a8.75 8.75 0 1 0 17.5 0 a8.75 8.75 0 1 0 -17.5 0zM428.75 682.5 a8.75 8.75 0 1 0 17.5 0 a8.75 8.75 0 1 0 -17.5 0z" fill="rgba(66, 99, 134, 1)"></path><path d="M1697.5 122.5L1697.5 157.5L1627.5 227.5L1627.5 262.5" stroke-width="5.83" stroke="rgba(66, 99, 134, 1)"></path><path d="M1688.75 122.5 a8.75 8.75 0 1 0 17.5 0 a8.75 8.75 0 1 0 -17.5 0zM1618.75 262.5 a8.75 8.75 0 1 0 17.5 0 a8.75 8.75 0 1 0 -17.5 0z" fill="rgba(66, 99, 134, 1)"></path><path d="M1767.5 857.5L1767.5 822.5L1732.5 787.5" stroke-width="5.83" stroke="rgba(66, 99, 134, 1)"></path><path d="M1758.75 857.5 a8.75 8.75 0 1 0 17.5 0 a8.75 8.75 0 1 0 -17.5 0zM1723.75 787.5 a8.75 8.75 0 1 0 17.5 0 a8.75 8.75 0 1 0 -17.5 0z" fill="rgba(66, 99, 134, 1)"></path><path d="M227.5 577.5L227.5 612.5L262.5 647.5L297.5 647.5L332.5 612.5L332.5 542.5" stroke-width="5.83" stroke="rgba(66, 99, 134, 1)"></path><path d="M218.75 577.5 a8.75 8.75 0 1 0 17.5 0 a8.75 8.75 0 1 0 -17.5 0zM323.75 542.5 a8.75 8.75 0 1 0 17.5 0 a8.75 8.75 0 1 0 -17.5 0z" fill="rgba(66, 99, 134, 1)"></path><path d="M52.5 297.5L52.5 262.5L17.5 227.5" stroke-width="5.83" stroke="rgba(66, 99, 134, 1)"></path><path d="M43.75 297.5 a8.75 8.75 0 1 0 17.5 0 a8.75 8.75 0 1 0 -17.5 0zM8.75 227.5 a8.75 8.75 0 1 0 17.5 0 a8.75 8.75 0 1 0 -17.5 0z" fill="rgba(66, 99, 134, 1)"></path><path d="M1207.5 822.5L1207.5 752.5" stroke-width="5.83" stroke="rgba(66, 99, 134, 1)"></path><path d="M1198.75 822.5 a8.75 8.75 0 1 0 17.5 0 a8.75 8.75 0 1 0 -17.5 0zM1198.75 752.5 a8.75 8.75 0 1 0 17.5 0 a8.75 8.75 0 1 0 -17.5 0z" fill="rgba(66, 99, 134, 1)"></path><path d="M1732.5 157.5L1732.5 87.5" stroke-width="5.83" stroke="rgba(66, 99, 134, 1)"></path><path d="M1723.75 157.5 a8.75 8.75 0 1 0 17.5 0 a8.75 8.75 0 1 0 -17.5 0zM1723.75 87.5 a8.75 8.75 0 1 0 17.5 0 a8.75 8.75 0 1 0 -17.5 0z" fill="rgba(66, 99, 134, 1)"></path><path d="M1067.5 52.5L1102.5 17.5L1137.5 17.5" stroke-width="5.83" stroke="rgba(66, 99, 134, 1)"></path><path d="M1058.75 52.5 a8.75 8.75 0 1 0 17.5 0 a8.75 8.75 0 1 0 -17.5 0zM1128.75 17.5 a8.75 8.75 0 1 0 17.5 0 a8.75 8.75 0 1 0 -17.5 0z" fill="rgba(66, 99, 134, 1)"></path><path d="M1767.5 437.5L1802.5 472.5L1802.5 507.5L1767.5 542.5" stroke-width="5.83" stroke="rgba(66, 99, 134, 1)"></path><path d="M1758.75 437.5 a8.75 8.75 0 1 0 17.5 0 a8.75 8.75 0 1 0 -17.5 0zM1758.75 542.5 a8.75 8.75 0 1 0 17.5 0 a8.75 8.75 0 1 0 -17.5 0z" fill="rgba(66, 99, 134, 1)"></path><path d="M17.5 367.5L17.5 262.5" stroke-width="5.83" stroke="rgba(66, 99, 134, 1)"></path><path d="M8.75 367.5 a8.75 8.75 0 1 0 17.5 0 a8.75 8.75 0 1 0 -17.5 0zM8.75 262.5 a8.75 8.75 0 1 0 17.5 0 a8.75 8.75 0 1 0 -17.5 0z" fill="rgba(66, 99, 134, 1)"></path><path d="M1767.5 87.5L1837.5 87.5" stroke-width="5.83" stroke="rgba(66, 99, 134, 1)"></path><path d="M1758.75 87.5 a8.75 8.75 0 1 0 17.5 0 a8.75 8.75 0 1 0 -17.5 0zM1828.75 87.5 a8.75 8.75 0 1 0 17.5 0 a8.75 8.75 0 1 0 -17.5 0z" fill="rgba(66, 99, 134, 1)"></path><path d="M1417.5 192.5L1417.5 122.5L1382.5 87.5L1347.5 87.5" stroke-width="5.83" stroke="rgba(66, 99, 134, 1)"></path><path d="M1408.75 192.5 a8.75 8.75 0 1 0 17.5 0 a8.75 8.75 0 1 0 -17.5 0zM1338.75 87.5 a8.75 8.75 0 1 0 17.5 0 a8.75 8.75 0 1 0 -17.5 0z" fill="rgba(66, 99, 134, 1)"></path><path d="M1557.5 1067.5L1627.5 1067.5" stroke-width="5.83" stroke="rgba(66, 99, 134, 1)"></path><path d="M1548.75 1067.5 a8.75 8.75 0 1 0 17.5 0 a8.75 8.75 0 1 0 -17.5 0zM1618.75 1067.5 a8.75 8.75 0 1 0 17.5 0 a8.75 8.75 0 1 0 -17.5 0z" fill="rgba(66, 99, 134, 1)"></path><path d="M1137.5 577.5L997.5 577.5" stroke-width="5.83" stroke="rgba(66, 99, 134, 1)"></path><path d="M1128.75 577.5 a8.75 8.75 0 1 0 17.5 0 a8.75 8.75 0 1 0 -17.5 0zM988.75 577.5 a8.75 8.75 0 1 0 17.5 0 a8.75 8.75 0 1 0 -17.5 0z" fill="rgba(66, 99, 134, 1)"></path><path d="M857.5 717.5L857.5 612.5" stroke-width="5.83" stroke="rgba(66, 99, 134, 1)"></path><path d="M848.75 717.5 a8.75 8.75 0 1 0 17.5 0 a8.75 8.75 0 1 0 -17.5 0zM848.75 612.5 a8.75 8.75 0 1 0 17.5 0 a8.75 8.75 0 1 0 -17.5 0z" fill="rgba(66, 99, 134, 1)"></path><path d="M52.5 17.5L17.5 52.5L17.5 157.5" stroke-width="5.83" stroke="rgba(66, 99, 134, 1)"></path><path d="M43.75 17.5 a8.75 8.75 0 1 0 17.5 0 a8.75 8.75 0 1 0 -17.5 0zM8.75 157.5 a8.75 8.75 0 1 0 17.5 0 a8.75 8.75 0 1 0 -17.5 0z" fill="rgba(66, 99, 134, 1)"></path><path d="M577.5 892.5L542.5 927.5L542.5 997.5" stroke-width="5.83" stroke="rgba(66, 99, 134, 1)"></path><path d="M568.75 892.5 a8.75 8.75 0 1 0 17.5 0 a8.75 8.75 0 1 0 -17.5 0zM533.75 997.5 a8.75 8.75 0 1 0 17.5 0 a8.75 8.75 0 1 0 -17.5 0z" fill="rgba(66, 99, 134, 1)"></path><path d="M1802.5 857.5L1802.5 927.5L1767.5 962.5" stroke-width="5.83" stroke="rgba(66, 99, 134, 1)"></path><path d="M1793.75 857.5 a8.75 8.75 0 1 0 17.5 0 a8.75 8.75 0 1 0 -17.5 0zM1758.75 962.5 a8.75 8.75 0 1 0 17.5 0 a8.75 8.75 0 1 0 -17.5 0z" fill="rgba(66, 99, 134, 1)"></path><path d="M122.5 822.5L122.5 857.5L52.5 927.5" stroke-width="5.83" stroke="rgba(66, 99, 134, 1)"></path><path d="M113.75 822.5 a8.75 8.75 0 1 0 17.5 0 a8.75 8.75 0 1 0 -17.5 0zM43.75 927.5 a8.75 8.75 0 1 0 17.5 0 a8.75 8.75 0 1 0 -17.5 0z" fill="rgba(66, 99, 134, 1)"></path><path d="M1137.5 262.5L1172.5 227.5L1242.5 227.5" stroke-width="5.83" stroke="rgba(66, 99, 134, 1)"></path><path d="M1128.75 262.5 a8.75 8.75 0 1 0 17.5 0 a8.75 8.75 0 1 0 -17.5 0zM1233.75 227.5 a8.75 8.75 0 1 0 17.5 0 a8.75 8.75 0 1 0 -17.5 0z" fill="rgba(66, 99, 134, 1)"></path><path d="M892.5 297.5L822.5 297.5" stroke-width="5.83" stroke="rgba(66, 99, 134, 1)"></path><path d="M883.75 297.5 a8.75 8.75 0 1 0 17.5 0 a8.75 8.75 0 1 0 -17.5 0zM813.75 297.5 a8.75 8.75 0 1 0 17.5 0 a8.75 8.75 0 1 0 -17.5 0z" fill="rgba(66, 99, 134, 1)"></path><path d="M437.5 962.5L472.5 997.5L472.5 1067.5" stroke-width="5.83" stroke="rgba(66, 99, 134, 1)"></path><path d="M428.75 962.5 a8.75 8.75 0 1 0 17.5 0 a8.75 8.75 0 1 0 -17.5 0zM463.75 1067.5 a8.75 8.75 0 1 0 17.5 0 a8.75 8.75 0 1 0 -17.5 0z" fill="rgba(66, 99, 134, 1)"></path><path d="M612.5 17.5L612.5 87.5" stroke-width="5.83" stroke="rgba(66, 99, 134, 1)"></path><path d="M603.75 17.5 a8.75 8.75 0 1 0 17.5 0 a8.75 8.75 0 1 0 -17.5 0zM603.75 87.5 a8.75 8.75 0 1 0 17.5 0 a8.75 8.75 0 1 0 -17.5 0z" fill="rgba(66, 99, 134, 1)"></path><path d="M1417.5 927.5L1452.5 892.5L1522.5 892.5" stroke-width="5.83" stroke="rgba(66, 99, 134, 1)"></path><path d="M1408.75 927.5 a8.75 8.75 0 1 0 17.5 0 a8.75 8.75 0 1 0 -17.5 0zM1513.75 892.5 a8.75 8.75 0 1 0 17.5 0 a8.75 8.75 0 1 0 -17.5 0z" fill="rgba(66, 99, 134, 1)"></path><path d="M1487.5 1067.5L1347.5 1067.5L1312.5 1032.5L1277.5 1032.5" stroke-width="5.83" stroke="rgba(66, 99, 134, 1)"></path><path d="M1478.75 1067.5 a8.75 8.75 0 1 0 17.5 0 a8.75 8.75 0 1 0 -17.5 0zM1268.75 1032.5 a8.75 8.75 0 1 0 17.5 0 a8.75 8.75 0 1 0 -17.5 0z" fill="rgba(66, 99, 134, 1)"></path><path d="M1802.5 647.5L1907.5 752.5L1907.5 787.5" stroke-width="5.83" stroke="rgba(66, 99, 134, 1)"></path><path d="M1793.75 647.5 a8.75 8.75 0 1 0 17.5 0 a8.75 8.75 0 1 0 -17.5 0zM1898.75 787.5 a8.75 8.75 0 1 0 17.5 0 a8.75 8.75 0 1 0 -17.5 0z" fill="rgba(66, 99, 134, 1)"></path><path d="M1907.5 157.5L1907.5 297.5" stroke-width="5.83" stroke="rgba(66, 99, 134, 1)"></path><path d="M1898.75 157.5 a8.75 8.75 0 1 0 17.5 0 a8.75 8.75 0 1 0 -17.5 0zM1898.75 297.5 a8.75 8.75 0 1 0 17.5 0 a8.75 8.75 0 1 0 -17.5 0z" fill="rgba(66, 99, 134, 1)"></path><path d="M1557.5 192.5L1522.5 227.5L1522.5 262.5" stroke-width="5.83" stroke="rgba(66, 99, 134, 1)"></path><path d="M1548.75 192.5 a8.75 8.75 0 1 0 17.5 0 a8.75 8.75 0 1 0 -17.5 0zM1513.75 262.5 a8.75 8.75 0 1 0 17.5 0 a8.75 8.75 0 1 0 -17.5 0z" fill="rgba(66, 99, 134, 1)"></path><path d="M1347.5 612.5L1277.5 612.5" stroke-width="5.83" stroke="rgba(66, 99, 134, 1)"></path><path d="M1338.75 612.5 a8.75 8.75 0 1 0 17.5 0 a8.75 8.75 0 1 0 -17.5 0zM1268.75 612.5 a8.75 8.75 0 1 0 17.5 0 a8.75 8.75 0 1 0 -17.5 0z" fill="rgba(66, 99, 134, 1)"></path><path d="M472.5 332.5L472.5 402.5L437.5 437.5L402.5 437.5" stroke-width="5.83" stroke="rgba(66, 99, 134, 1)"></path><path d="M463.75 332.5 a8.75 8.75 0 1 0 17.5 0 a8.75 8.75 0 1 0 -17.5 0zM393.75 437.5 a8.75 8.75 0 1 0 17.5 0 a8.75 8.75 0 1 0 -17.5 0z" fill="rgba(66, 99, 134, 1)"></path><path d="M122.5 87.5L157.5 122.5L157.5 157.5L122.5 192.5" stroke-width="5.83" stroke="rgba(66, 99, 134, 1)"></path><path d="M113.75 87.5 a8.75 8.75 0 1 0 17.5 0 a8.75 8.75 0 1 0 -17.5 0zM113.75 192.5 a8.75 8.75 0 1 0 17.5 0 a8.75 8.75 0 1 0 -17.5 0z" fill="rgba(66, 99, 134, 1)"></path><path d="M1067.5 122.5L1067.5 87.5L1102.5 52.5L1137.5 52.5L1172.5 87.5L1207.5 87.5L1242.5 52.5" stroke-width="5.83" stroke="rgba(66, 99, 134, 1)"></path><path d="M1058.75 122.5 a8.75 8.75 0 1 0 17.5 0 a8.75 8.75 0 1 0 -17.5 0zM1233.75 52.5 a8.75 8.75 0 1 0 17.5 0 a8.75 8.75 0 1 0 -17.5 0z" fill="rgba(66, 99, 134, 1)"></path><path d="M227.5 542.5L157.5 542.5" stroke-width="5.83" stroke="rgba(66, 99, 134, 1)"></path><path d="M218.75 542.5 a8.75 8.75 0 1 0 17.5 0 a8.75 8.75 0 1 0 -17.5 0zM148.75 542.5 a8.75 8.75 0 1 0 17.5 0 a8.75 8.75 0 1 0 -17.5 0z" fill="rgba(66, 99, 134, 1)"></path><path d="M1872.5 612.5L1872.5 682.5L1907.5 717.5" stroke-width="5.83" stroke="rgba(66, 99, 134, 1)"></path><path d="M1863.75 612.5 a8.75 8.75 0 1 0 17.5 0 a8.75 8.75 0 1 0 -17.5 0zM1898.75 717.5 a8.75 8.75 0 1 0 17.5 0 a8.75 8.75 0 1 0 -17.5 0z" fill="rgba(66, 99, 134, 1)"></path><path d="M192.5 717.5L192.5 787.5" stroke-width="5.83" stroke="rgba(66, 99, 134, 1)"></path><path d="M183.75 717.5 a8.75 8.75 0 1 0 17.5 0 a8.75 8.75 0 1 0 -17.5 0zM183.75 787.5 a8.75 8.75 0 1 0 17.5 0 a8.75 8.75 0 1 0 -17.5 0z" fill="rgba(66, 99, 134, 1)"></path><path d="M1522.5 612.5L1592.5 612.5" stroke-width="5.83" stroke="rgba(66, 99, 134, 1)"></path><path d="M1513.75 612.5 a8.75 8.75 0 1 0 17.5 0 a8.75 8.75 0 1 0 -17.5 0zM1583.75 612.5 a8.75 8.75 0 1 0 17.5 0 a8.75 8.75 0 1 0 -17.5 0z" fill="rgba(66, 99, 134, 1)"></path><path d="M1627.5 437.5L1697.5 437.5" stroke-width="5.83" stroke="rgba(66, 99, 134, 1)"></path><path d="M1618.75 437.5 a8.75 8.75 0 1 0 17.5 0 a8.75 8.75 0 1 0 -17.5 0zM1688.75 437.5 a8.75 8.75 0 1 0 17.5 0 a8.75 8.75 0 1 0 -17.5 0z" fill="rgba(66, 99, 134, 1)"></path><path d="M612.5 927.5L612.5 857.5" stroke-width="5.83" stroke="rgba(66, 99, 134, 1)"></path><path d="M603.75 927.5 a8.75 8.75 0 1 0 17.5 0 a8.75 8.75 0 1 0 -17.5 0zM603.75 857.5 a8.75 8.75 0 1 0 17.5 0 a8.75 8.75 0 1 0 -17.5 0z" fill="rgba(66, 99, 134, 1)"></path><path d="M717.5 857.5L682.5 822.5L682.5 787.5" stroke-width="5.83" stroke="rgba(66, 99, 134, 1)"></path><path d="M708.75 857.5 a8.75 8.75 0 1 0 17.5 0 a8.75 8.75 0 1 0 -17.5 0zM673.75 787.5 a8.75 8.75 0 1 0 17.5 0 a8.75 8.75 0 1 0 -17.5 0z" fill="rgba(66, 99, 134, 1)"></path><path d="M87.5 52.5L157.5 52.5" stroke-width="5.83" stroke="rgba(66, 99, 134, 1)"></path><path d="M78.75 52.5 a8.75 8.75 0 1 0 17.5 0 a8.75 8.75 0 1 0 -17.5 0zM148.75 52.5 a8.75 8.75 0 1 0 17.5 0 a8.75 8.75 0 1 0 -17.5 0z" fill="rgba(66, 99, 134, 1)"></path><path d="M1067.5 822.5L1102.5 857.5L1102.5 892.5" stroke-width="5.83" stroke="rgba(66, 99, 134, 1)"></path><path d="M1058.75 822.5 a8.75 8.75 0 1 0 17.5 0 a8.75 8.75 0 1 0 -17.5 0zM1093.75 892.5 a8.75 8.75 0 1 0 17.5 0 a8.75 8.75 0 1 0 -17.5 0z" fill="rgba(66, 99, 134, 1)"></path><path d="M892.5 227.5L857.5 227.5L787.5 157.5L787.5 122.5" stroke-width="5.83" stroke="rgba(66, 99, 134, 1)"></path><path d="M883.75 227.5 a8.75 8.75 0 1 0 17.5 0 a8.75 8.75 0 1 0 -17.5 0zM778.75 122.5 a8.75 8.75 0 1 0 17.5 0 a8.75 8.75 0 1 0 -17.5 0z" fill="rgba(66, 99, 134, 1)"></path><path d="M1102.5 682.5L1207.5 682.5" stroke-width="5.83" stroke="rgba(66, 99, 134, 1)"></path><path d="M1093.75 682.5 a8.75 8.75 0 1 0 17.5 0 a8.75 8.75 0 1 0 -17.5 0zM1198.75 682.5 a8.75 8.75 0 1 0 17.5 0 a8.75 8.75 0 1 0 -17.5 0z" fill="rgba(66, 99, 134, 1)"></path><path d="M437.5 297.5L437.5 402.5" stroke-width="5.83" stroke="rgba(66, 99, 134, 1)"></path><path d="M428.75 297.5 a8.75 8.75 0 1 0 17.5 0 a8.75 8.75 0 1 0 -17.5 0zM428.75 402.5 a8.75 8.75 0 1 0 17.5 0 a8.75 8.75 0 1 0 -17.5 0z" fill="rgba(66, 99, 134, 1)"></path><path d="M1522.5 402.5L1592.5 402.5" stroke-width="5.83" stroke="rgba(66, 99, 134, 1)"></path><path d="M1513.75 402.5 a8.75 8.75 0 1 0 17.5 0 a8.75 8.75 0 1 0 -17.5 0zM1583.75 402.5 a8.75 8.75 0 1 0 17.5 0 a8.75 8.75 0 1 0 -17.5 0z" fill="rgba(66, 99, 134, 1)"></path><path d="M857.5 1032.5L892.5 1032.5L927.5 1067.5" stroke-width="5.83" stroke="rgba(66, 99, 134, 1)"></path><path d="M848.75 1032.5 a8.75 8.75 0 1 0 17.5 0 a8.75 8.75 0 1 0 -17.5 0zM918.75 1067.5 a8.75 8.75 0 1 0 17.5 0 a8.75 8.75 0 1 0 -17.5 0z" fill="rgba(66, 99, 134, 1)"></path><path d="M402.5 367.5L367.5 332.5L367.5 297.5" stroke-width="5.83" stroke="rgba(66, 99, 134, 1)"></path><path d="M393.75 367.5 a8.75 8.75 0 1 0 17.5 0 a8.75 8.75 0 1 0 -17.5 0zM358.75 297.5 a8.75 8.75 0 1 0 17.5 0 a8.75 8.75 0 1 0 -17.5 0z" fill="rgba(66, 99, 134, 1)"></path><path d="M1452.5 612.5L1382.5 612.5" stroke-width="5.83" stroke="rgba(66, 99, 134, 1)"></path><path d="M1443.75 612.5 a8.75 8.75 0 1 0 17.5 0 a8.75 8.75 0 1 0 -17.5 0zM1373.75 612.5 a8.75 8.75 0 1 0 17.5 0 a8.75 8.75 0 1 0 -17.5 0z" fill="rgba(66, 99, 134, 1)"></path><path d="M1102.5 297.5L1172.5 297.5L1207.5 262.5" stroke-width="5.83" stroke="rgba(66, 99, 134, 1)"></path><path d="M1093.75 297.5 a8.75 8.75 0 1 0 17.5 0 a8.75 8.75 0 1 0 -17.5 0zM1198.75 262.5 a8.75 8.75 0 1 0 17.5 0 a8.75 8.75 0 1 0 -17.5 0z" fill="rgba(66, 99, 134, 1)"></path><path d="M52.5 892.5L52.5 857.5L87.5 822.5" stroke-width="5.83" stroke="rgba(66, 99, 134, 1)"></path><path d="M43.75 892.5 a8.75 8.75 0 1 0 17.5 0 a8.75 8.75 0 1 0 -17.5 0zM78.75 822.5 a8.75 8.75 0 1 0 17.5 0 a8.75 8.75 0 1 0 -17.5 0z" fill="rgba(66, 99, 134, 1)"></path><path d="M1557.5 682.5L1627.5 682.5" stroke-width="5.83" stroke="rgba(66, 99, 134, 1)"></path><path d="M1548.75 682.5 a8.75 8.75 0 1 0 17.5 0 a8.75 8.75 0 1 0 -17.5 0zM1618.75 682.5 a8.75 8.75 0 1 0 17.5 0 a8.75 8.75 0 1 0 -17.5 0z" fill="rgba(66, 99, 134, 1)"></path><path d="M1032.5 1032.5L997.5 1032.5L962.5 997.5L927.5 997.5" stroke-width="5.83" stroke="rgba(66, 99, 134, 1)"></path><path d="M1023.75 1032.5 a8.75 8.75 0 1 0 17.5 0 a8.75 8.75 0 1 0 -17.5 0zM918.75 997.5 a8.75 8.75 0 1 0 17.5 0 a8.75 8.75 0 1 0 -17.5 0z" fill="rgba(66, 99, 134, 1)"></path><path d="M717.5 1067.5L787.5 997.5L822.5 997.5" stroke-width="5.83" stroke="rgba(66, 99, 134, 1)"></path><path d="M708.75 1067.5 a8.75 8.75 0 1 0 17.5 0 a8.75 8.75 0 1 0 -17.5 0zM813.75 997.5 a8.75 8.75 0 1 0 17.5 0 a8.75 8.75 0 1 0 -17.5 0z" fill="rgba(66, 99, 134, 1)"></path><path d="M332.5 927.5L262.5 997.5" stroke-width="5.83" stroke="rgba(66, 99, 134, 1)"></path><path d="M323.75 927.5 a8.75 8.75 0 1 0 17.5 0 a8.75 8.75 0 1 0 -17.5 0zM253.75 997.5 a8.75 8.75 0 1 0 17.5 0 a8.75 8.75 0 1 0 -17.5 0z" fill="rgba(66, 99, 134, 1)"></path><path d="M822.5 682.5L787.5 682.5L752.5 647.5" stroke-width="5.83" stroke="rgba(66, 99, 134, 1)"></path><path d="M813.75 682.5 a8.75 8.75 0 1 0 17.5 0 a8.75 8.75 0 1 0 -17.5 0zM743.75 647.5 a8.75 8.75 0 1 0 17.5 0 a8.75 8.75 0 1 0 -17.5 0z" fill="rgba(66, 99, 134, 1)"></path><path d="M1172.5 122.5L1102.5 122.5L1067.5 157.5" stroke-width="5.83" stroke="rgba(66, 99, 134, 1)"></path><path d="M1163.75 122.5 a8.75 8.75 0 1 0 17.5 0 a8.75 8.75 0 1 0 -17.5 0zM1058.75 157.5 a8.75 8.75 0 1 0 17.5 0 a8.75 8.75 0 1 0 -17.5 0z" fill="rgba(66, 99, 134, 1)"></path><path d="M1592.5 647.5L1522.5 647.5" stroke-width="5.83" stroke="rgba(66, 99, 134, 1)"></path><path d="M1583.75 647.5 a8.75 8.75 0 1 0 17.5 0 a8.75 8.75 0 1 0 -17.5 0zM1513.75 647.5 a8.75 8.75 0 1 0 17.5 0 a8.75 8.75 0 1 0 -17.5 0z" fill="rgba(66, 99, 134, 1)"></path><path d="M892.5 192.5L892.5 157.5L857.5 122.5" stroke-width="5.83" stroke="rgba(66, 99, 134, 1)"></path><path d="M883.75 192.5 a8.75 8.75 0 1 0 17.5 0 a8.75 8.75 0 1 0 -17.5 0zM848.75 122.5 a8.75 8.75 0 1 0 17.5 0 a8.75 8.75 0 1 0 -17.5 0z" fill="rgba(66, 99, 134, 1)"></path><path d="M647.5 157.5L717.5 227.5" stroke-width="5.83" stroke="rgba(66, 99, 134, 1)"></path><path d="M638.75 157.5 a8.75 8.75 0 1 0 17.5 0 a8.75 8.75 0 1 0 -17.5 0zM708.75 227.5 a8.75 8.75 0 1 0 17.5 0 a8.75 8.75 0 1 0 -17.5 0z" fill="rgba(66, 99, 134, 1)"></path></g></g><defs><mask id="SvgjsMask1153"><rect width="1920" height="1080" fill="#ffffff"></rect></mask><mask id="SvgjsMask1154"><rect width="1920" height="1080" fill="white"></rect><path d="M1658.12 507.5 a4.38 4.38 0 1 0 8.76 0 a4.38 4.38 0 1 0 -8.76 0zM993.12 507.5 a4.38 4.38 0 1 0 8.76 0 a4.38 4.38 0 1 0 -8.76 0z" fill="black"></path><path d="M1133.12 892.5 a4.38 4.38 0 1 0 8.76 0 a4.38 4.38 0 1 0 -8.76 0zM1133.12 1067.5 a4.38 4.38 0 1 0 8.76 0 a4.38 4.38 0 1 0 -8.76 0z" fill="black"></path><path d="M1098.12 787.5 a4.38 4.38 0 1 0 8.76 0 a4.38 4.38 0 1 0 -8.76 0zM958.12 122.5 a4.38 4.38 0 1 0 8.76 0 a4.38 4.38 0 1 0 -8.76 0z" fill="black"></path><path d="M783.12 577.5 a4.38 4.38 0 1 0 8.76 0 a4.38 4.38 0 1 0 -8.76 0zM923.12 577.5 a4.38 4.38 0 1 0 8.76 0 a4.38 4.38 0 1 0 -8.76 0z" fill="black"></path><path d="M83.12 367.5 a4.38 4.38 0 1 0 8.76 0 a4.38 4.38 0 1 0 -8.76 0zM573.12 367.5 a4.38 4.38 0 1 0 8.76 0 a4.38 4.38 0 1 0 -8.76 0z" fill="black"></path><path d="M1693.12 192.5 a4.38 4.38 0 1 0 8.76 0 a4.38 4.38 0 1 0 -8.76 0zM1483.12 857.5 a4.38 4.38 0 1 0 8.76 0 a4.38 4.38 0 1 0 -8.76 0z" fill="black"></path><path d="M503.12 507.5 a4.38 4.38 0 1 0 8.76 0 a4.38 4.38 0 1 0 -8.76 0zM13.12 1067.5 a4.38 4.38 0 1 0 8.76 0 a4.38 4.38 0 1 0 -8.76 0z" fill="black"></path><path d="M398.12 997.5 a4.38 4.38 0 1 0 8.76 0 a4.38 4.38 0 1 0 -8.76 0zM188.12 857.5 a4.38 4.38 0 1 0 8.76 0 a4.38 4.38 0 1 0 -8.76 0z" fill="black"></path><path d="M1518.12 542.5 a4.38 4.38 0 1 0 8.76 0 a4.38 4.38 0 1 0 -8.76 0zM993.12 542.5 a4.38 4.38 0 1 0 8.76 0 a4.38 4.38 0 1 0 -8.76 0z" fill="black"></path><path d="M993.12 612.5 a4.38 4.38 0 1 0 8.76 0 a4.38 4.38 0 1 0 -8.76 0zM1658.12 612.5 a4.38 4.38 0 1 0 8.76 0 a4.38 4.38 0 1 0 -8.76 0z" fill="black"></path><path d="M1203.12 647.5 a4.38 4.38 0 1 0 8.76 0 a4.38 4.38 0 1 0 -8.76 0zM1273.12 997.5 a4.38 4.38 0 1 0 8.76 0 a4.38 4.38 0 1 0 -8.76 0z" fill="black"></path><path d="M538.12 87.5 a4.38 4.38 0 1 0 8.76 0 a4.38 4.38 0 1 0 -8.76 0zM538.12 17.5 a4.38 4.38 0 1 0 8.76 0 a4.38 4.38 0 1 0 -8.76 0z" fill="black"></path><path d="M818.12 157.5 a4.38 4.38 0 1 0 8.76 0 a4.38 4.38 0 1 0 -8.76 0zM818.12 17.5 a4.38 4.38 0 1 0 8.76 0 a4.38 4.38 0 1 0 -8.76 0z" fill="black"></path><path d="M13.12 192.5 a4.38 4.38 0 1 0 8.76 0 a4.38 4.38 0 1 0 -8.76 0zM118.12 297.5 a4.38 4.38 0 1 0 8.76 0 a4.38 4.38 0 1 0 -8.76 0z" fill="black"></path><path d="M1658.12 1032.5 a4.38 4.38 0 1 0 8.76 0 a4.38 4.38 0 1 0 -8.76 0zM1903.12 367.5 a4.38 4.38 0 1 0 8.76 0 a4.38 4.38 0 1 0 -8.76 0z" fill="black"></path><path d="M1763.12 402.5 a4.38 4.38 0 1 0 8.76 0 a4.38 4.38 0 1 0 -8.76 0zM1903.12 17.5 a4.38 4.38 0 1 0 8.76 0 a4.38 4.38 0 1 0 -8.76 0z" fill="black"></path><path d="M573.12 1067.5 a4.38 4.38 0 1 0 8.76 0 a4.38 4.38 0 1 0 -8.76 0zM923.12 612.5 a4.38 4.38 0 1 0 8.76 0 a4.38 4.38 0 1 0 -8.76 0z" fill="black"></path><path d="M503.12 577.5 a4.38 4.38 0 1 0 8.76 0 a4.38 4.38 0 1 0 -8.76 0zM923.12 262.5 a4.38 4.38 0 1 0 8.76 0 a4.38 4.38 0 1 0 -8.76 0z" fill="black"></path><path d="M748.12 822.5 a4.38 4.38 0 1 0 8.76 0 a4.38 4.38 0 1 0 -8.76 0zM503.12 612.5 a4.38 4.38 0 1 0 8.76 0 a4.38 4.38 0 1 0 -8.76 0z" fill="black"></path><path d="M1168.12 52.5 a4.38 4.38 0 1 0 8.76 0 a4.38 4.38 0 1 0 -8.76 0zM1833.12 17.5 a4.38 4.38 0 1 0 8.76 0 a4.38 4.38 0 1 0 -8.76 0z" fill="black"></path><path d="M1868.12 402.5 a4.38 4.38 0 1 0 8.76 0 a4.38 4.38 0 1 0 -8.76 0zM1903.12 87.5 a4.38 4.38 0 1 0 8.76 0 a4.38 4.38 0 1 0 -8.76 0z" fill="black"></path><path d="M1028.12 437.5 a4.38 4.38 0 1 0 8.76 0 a4.38 4.38 0 1 0 -8.76 0zM1028.12 17.5 a4.38 4.38 0 1 0 8.76 0 a4.38 4.38 0 1 0 -8.76 0z" fill="black"></path><path d="M888.12 52.5 a4.38 4.38 0 1 0 8.76 0 a4.38 4.38 0 1 0 -8.76 0zM993.12 472.5 a4.38 4.38 0 1 0 8.76 0 a4.38 4.38 0 1 0 -8.76 0z" fill="black"></path><path d="M1063.12 647.5 a4.38 4.38 0 1 0 8.76 0 a4.38 4.38 0 1 0 -8.76 0zM1308.12 962.5 a4.38 4.38 0 1 0 8.76 0 a4.38 4.38 0 1 0 -8.76 0z" fill="black"></path><path d="M748.12 472.5 a4.38 4.38 0 1 0 8.76 0 a4.38 4.38 0 1 0 -8.76 0zM923.12 297.5 a4.38 4.38 0 1 0 8.76 0 a4.38 4.38 0 1 0 -8.76 0z" fill="black"></path><path d="M748.12 297.5 a4.38 4.38 0 1 0 8.76 0 a4.38 4.38 0 1 0 -8.76 0zM748.12 17.5 a4.38 4.38 0 1 0 8.76 0 a4.38 4.38 0 1 0 -8.76 0z" fill="black"></path><path d="M678.12 297.5 a4.38 4.38 0 1 0 8.76 0 a4.38 4.38 0 1 0 -8.76 0zM48.12 52.5 a4.38 4.38 0 1 0 8.76 0 a4.38 4.38 0 1 0 -8.76 0z" fill="black"></path><path d="M1343.12 1032.5 a4.38 4.38 0 1 0 8.76 0 a4.38 4.38 0 1 0 -8.76 0zM1903.12 1067.5 a4.38 4.38 0 1 0 8.76 0 a4.38 4.38 0 1 0 -8.76 0z" fill="black"></path><path d="M363.12 227.5 a4.38 4.38 0 1 0 8.76 0 a4.38 4.38 0 1 0 -8.76 0zM13.12 787.5 a4.38 4.38 0 1 0 8.76 0 a4.38 4.38 0 1 0 -8.76 0z" fill="black"></path><path d="M1343.12 297.5 a4.38 4.38 0 1 0 8.76 0 a4.38 4.38 0 1 0 -8.76 0zM1693.12 297.5 a4.38 4.38 0 1 0 8.76 0 a4.38 4.38 0 1 0 -8.76 0z" fill="black"></path><path d="M1903.12 822.5 a4.38 4.38 0 1 0 8.76 0 a4.38 4.38 0 1 0 -8.76 0zM1903.12 1032.5 a4.38 4.38 0 1 0 8.76 0 a4.38 4.38 0 1 0 -8.76 0z" fill="black"></path><path d="M363.12 717.5 a4.38 4.38 0 1 0 8.76 0 a4.38 4.38 0 1 0 -8.76 0zM48.12 1067.5 a4.38 4.38 0 1 0 8.76 0 a4.38 4.38 0 1 0 -8.76 0z" fill="black"></path><path d="M223.12 332.5 a4.38 4.38 0 1 0 8.76 0 a4.38 4.38 0 1 0 -8.76 0zM13.12 962.5 a4.38 4.38 0 1 0 8.76 0 a4.38 4.38 0 1 0 -8.76 0z" fill="black"></path><path d="M363.12 472.5 a4.38 4.38 0 1 0 8.76 0 a4.38 4.38 0 1 0 -8.76 0zM83.12 682.5 a4.38 4.38 0 1 0 8.76 0 a4.38 4.38 0 1 0 -8.76 0z" fill="black"></path><path d="M713.12 157.5 a4.38 4.38 0 1 0 8.76 0 a4.38 4.38 0 1 0 -8.76 0zM713.12 17.5 a4.38 4.38 0 1 0 8.76 0 a4.38 4.38 0 1 0 -8.76 0z" fill="black"></path><path d="M293.12 822.5 a4.38 4.38 0 1 0 8.76 0 a4.38 4.38 0 1 0 -8.76 0zM83.12 1067.5 a4.38 4.38 0 1 0 8.76 0 a4.38 4.38 0 1 0 -8.76 0z" fill="black"></path><path d="M1693.12 752.5 a4.38 4.38 0 1 0 8.76 0 a4.38 4.38 0 1 0 -8.76 0zM1903.12 507.5 a4.38 4.38 0 1 0 8.76 0 a4.38 4.38 0 1 0 -8.76 0z" fill="black"></path><path d="M643.12 1032.5 a4.38 4.38 0 1 0 8.76 0 a4.38 4.38 0 1 0 -8.76 0zM1098.12 927.5 a4.38 4.38 0 1 0 8.76 0 a4.38 4.38 0 1 0 -8.76 0z" fill="black"></path><path d="M888.12 367.5 a4.38 4.38 0 1 0 8.76 0 a4.38 4.38 0 1 0 -8.76 0zM748.12 367.5 a4.38 4.38 0 1 0 8.76 0 a4.38 4.38 0 1 0 -8.76 0z" fill="black"></path><path d="M538.12 262.5 a4.38 4.38 0 1 0 8.76 0 a4.38 4.38 0 1 0 -8.76 0zM398.12 577.5 a4.38 4.38 0 1 0 8.76 0 a4.38 4.38 0 1 0 -8.76 0z" fill="black"></path><path d="M1798.12 997.5 a4.38 4.38 0 1 0 8.76 0 a4.38 4.38 0 1 0 -8.76 0zM1763.12 682.5 a4.38 4.38 0 1 0 8.76 0 a4.38 4.38 0 1 0 -8.76 0z" fill="black"></path><path d="M1238.12 367.5 a4.38 4.38 0 1 0 8.76 0 a4.38 4.38 0 1 0 -8.76 0zM1693.12 367.5 a4.38 4.38 0 1 0 8.76 0 a4.38 4.38 0 1 0 -8.76 0z" fill="black"></path><path d="M1168.12 1067.5 a4.38 4.38 0 1 0 8.76 0 a4.38 4.38 0 1 0 -8.76 0zM1273.12 962.5 a4.38 4.38 0 1 0 8.76 0 a4.38 4.38 0 1 0 -8.76 0z" fill="black"></path><path d="M1413.12 857.5 a4.38 4.38 0 1 0 8.76 0 a4.38 4.38 0 1 0 -8.76 0zM1378.12 857.5 a4.38 4.38 0 1 0 8.76 0 a4.38 4.38 0 1 0 -8.76 0z" fill="black"></path><path d="M1693.12 52.5 a4.38 4.38 0 1 0 8.76 0 a4.38 4.38 0 1 0 -8.76 0zM1868.12 52.5 a4.38 4.38 0 1 0 8.76 0 a4.38 4.38 0 1 0 -8.76 0z" fill="black"></path><path d="M1238.12 1067.5 a4.38 4.38 0 1 0 8.76 0 a4.38 4.38 0 1 0 -8.76 0zM1238.12 997.5 a4.38 4.38 0 1 0 8.76 0 a4.38 4.38 0 1 0 -8.76 0z" fill="black"></path><path d="M1588.12 332.5 a4.38 4.38 0 1 0 8.76 0 a4.38 4.38 0 1 0 -8.76 0zM1028.12 472.5 a4.38 4.38 0 1 0 8.76 0 a4.38 4.38 0 1 0 -8.76 0z" fill="black"></path><path d="M468.12 927.5 a4.38 4.38 0 1 0 8.76 0 a4.38 4.38 0 1 0 -8.76 0zM643.12 752.5 a4.38 4.38 0 1 0 8.76 0 a4.38 4.38 0 1 0 -8.76 0z" fill="black"></path><path d="M398.12 1032.5 a4.38 4.38 0 1 0 8.76 0 a4.38 4.38 0 1 0 -8.76 0zM153.12 997.5 a4.38 4.38 0 1 0 8.76 0 a4.38 4.38 0 1 0 -8.76 0z" fill="black"></path><path d="M1693.12 87.5 a4.38 4.38 0 1 0 8.76 0 a4.38 4.38 0 1 0 -8.76 0zM1588.12 262.5 a4.38 4.38 0 1 0 8.76 0 a4.38 4.38 0 1 0 -8.76 0z" fill="black"></path><path d="M1203.12 332.5 a4.38 4.38 0 1 0 8.76 0 a4.38 4.38 0 1 0 -8.76 0zM1308.12 52.5 a4.38 4.38 0 1 0 8.76 0 a4.38 4.38 0 1 0 -8.76 0z" fill="black"></path><path d="M923.12 787.5 a4.38 4.38 0 1 0 8.76 0 a4.38 4.38 0 1 0 -8.76 0zM923.12 892.5 a4.38 4.38 0 1 0 8.76 0 a4.38 4.38 0 1 0 -8.76 0z" fill="black"></path><path d="M1238.12 157.5 a4.38 4.38 0 1 0 8.76 0 a4.38 4.38 0 1 0 -8.76 0zM1063.12 437.5 a4.38 4.38 0 1 0 8.76 0 a4.38 4.38 0 1 0 -8.76 0z" fill="black"></path><path d="M48.12 122.5 a4.38 4.38 0 1 0 8.76 0 a4.38 4.38 0 1 0 -8.76 0zM188.12 52.5 a4.38 4.38 0 1 0 8.76 0 a4.38 4.38 0 1 0 -8.76 0z" fill="black"></path><path d="M1378.12 402.5 a4.38 4.38 0 1 0 8.76 0 a4.38 4.38 0 1 0 -8.76 0zM1133.12 472.5 a4.38 4.38 0 1 0 8.76 0 a4.38 4.38 0 1 0 -8.76 0z" fill="black"></path><path d="M993.12 752.5 a4.38 4.38 0 1 0 8.76 0 a4.38 4.38 0 1 0 -8.76 0zM923.12 752.5 a4.38 4.38 0 1 0 8.76 0 a4.38 4.38 0 1 0 -8.76 0z" fill="black"></path><path d="M1763.12 227.5 a4.38 4.38 0 1 0 8.76 0 a4.38 4.38 0 1 0 -8.76 0zM1763.12 367.5 a4.38 4.38 0 1 0 8.76 0 a4.38 4.38 0 1 0 -8.76 0z" fill="black"></path><path d="M608.12 122.5 a4.38 4.38 0 1 0 8.76 0 a4.38 4.38 0 1 0 -8.76 0zM538.12 507.5 a4.38 4.38 0 1 0 8.76 0 a4.38 4.38 0 1 0 -8.76 0z" fill="black"></path><path d="M153.12 822.5 a4.38 4.38 0 1 0 8.76 0 a4.38 4.38 0 1 0 -8.76 0zM153.12 717.5 a4.38 4.38 0 1 0 8.76 0 a4.38 4.38 0 1 0 -8.76 0z" fill="black"></path><path d="M713.12 612.5 a4.38 4.38 0 1 0 8.76 0 a4.38 4.38 0 1 0 -8.76 0zM608.12 507.5 a4.38 4.38 0 1 0 8.76 0 a4.38 4.38 0 1 0 -8.76 0z" fill="black"></path><path d="M1483.12 402.5 a4.38 4.38 0 1 0 8.76 0 a4.38 4.38 0 1 0 -8.76 0zM1518.12 472.5 a4.38 4.38 0 1 0 8.76 0 a4.38 4.38 0 1 0 -8.76 0z" fill="black"></path><path d="M678.12 892.5 a4.38 4.38 0 1 0 8.76 0 a4.38 4.38 0 1 0 -8.76 0zM503.12 1067.5 a4.38 4.38 0 1 0 8.76 0 a4.38 4.38 0 1 0 -8.76 0z" fill="black"></path><path d="M958.12 787.5 a4.38 4.38 0 1 0 8.76 0 a4.38 4.38 0 1 0 -8.76 0zM1168.12 997.5 a4.38 4.38 0 1 0 8.76 0 a4.38 4.38 0 1 0 -8.76 0z" fill="black"></path><path d="M1518.12 87.5 a4.38 4.38 0 1 0 8.76 0 a4.38 4.38 0 1 0 -8.76 0zM1658.12 52.5 a4.38 4.38 0 1 0 8.76 0 a4.38 4.38 0 1 0 -8.76 0z" fill="black"></path><path d="M1273.12 157.5 a4.38 4.38 0 1 0 8.76 0 a4.38 4.38 0 1 0 -8.76 0zM1098.12 437.5 a4.38 4.38 0 1 0 8.76 0 a4.38 4.38 0 1 0 -8.76 0z" fill="black"></path><path d="M643.12 612.5 a4.38 4.38 0 1 0 8.76 0 a4.38 4.38 0 1 0 -8.76 0zM783.12 822.5 a4.38 4.38 0 1 0 8.76 0 a4.38 4.38 0 1 0 -8.76 0z" fill="black"></path><path d="M398.12 472.5 a4.38 4.38 0 1 0 8.76 0 a4.38 4.38 0 1 0 -8.76 0zM503.12 192.5 a4.38 4.38 0 1 0 8.76 0 a4.38 4.38 0 1 0 -8.76 0z" fill="black"></path><path d="M1553.12 962.5 a4.38 4.38 0 1 0 8.76 0 a4.38 4.38 0 1 0 -8.76 0zM1343.12 997.5 a4.38 4.38 0 1 0 8.76 0 a4.38 4.38 0 1 0 -8.76 0z" fill="black"></path><path d="M1168.12 577.5 a4.38 4.38 0 1 0 8.76 0 a4.38 4.38 0 1 0 -8.76 0zM1238.12 577.5 a4.38 4.38 0 1 0 8.76 0 a4.38 4.38 0 1 0 -8.76 0z" fill="black"></path><path d="M1238.12 682.5 a4.38 4.38 0 1 0 8.76 0 a4.38 4.38 0 1 0 -8.76 0zM1098.12 717.5 a4.38 4.38 0 1 0 8.76 0 a4.38 4.38 0 1 0 -8.76 0z" fill="black"></path><path d="M223.12 962.5 a4.38 4.38 0 1 0 8.76 0 a4.38 4.38 0 1 0 -8.76 0zM223.12 1032.5 a4.38 4.38 0 1 0 8.76 0 a4.38 4.38 0 1 0 -8.76 0z" fill="black"></path><path d="M328.12 262.5 a4.38 4.38 0 1 0 8.76 0 a4.38 4.38 0 1 0 -8.76 0zM468.12 262.5 a4.38 4.38 0 1 0 8.76 0 a4.38 4.38 0 1 0 -8.76 0z" fill="black"></path><path d="M713.12 997.5 a4.38 4.38 0 1 0 8.76 0 a4.38 4.38 0 1 0 -8.76 0zM608.12 1067.5 a4.38 4.38 0 1 0 8.76 0 a4.38 4.38 0 1 0 -8.76 0z" fill="black"></path><path d="M258.12 437.5 a4.38 4.38 0 1 0 8.76 0 a4.38 4.38 0 1 0 -8.76 0zM83.12 647.5 a4.38 4.38 0 1 0 8.76 0 a4.38 4.38 0 1 0 -8.76 0z" fill="black"></path><path d="M748.12 682.5 a4.38 4.38 0 1 0 8.76 0 a4.38 4.38 0 1 0 -8.76 0zM888.12 612.5 a4.38 4.38 0 1 0 8.76 0 a4.38 4.38 0 1 0 -8.76 0z" fill="black"></path><path d="M1378.12 787.5 a4.38 4.38 0 1 0 8.76 0 a4.38 4.38 0 1 0 -8.76 0zM1343.12 717.5 a4.38 4.38 0 1 0 8.76 0 a4.38 4.38 0 1 0 -8.76 0z" fill="black"></path><path d="M713.12 507.5 a4.38 4.38 0 1 0 8.76 0 a4.38 4.38 0 1 0 -8.76 0zM923.12 507.5 a4.38 4.38 0 1 0 8.76 0 a4.38 4.38 0 1 0 -8.76 0z" fill="black"></path><path d="M958.12 1067.5 a4.38 4.38 0 1 0 8.76 0 a4.38 4.38 0 1 0 -8.76 0zM748.12 962.5 a4.38 4.38 0 1 0 8.76 0 a4.38 4.38 0 1 0 -8.76 0z" fill="black"></path><path d="M1063.12 892.5 a4.38 4.38 0 1 0 8.76 0 a4.38 4.38 0 1 0 -8.76 0zM958.12 892.5 a4.38 4.38 0 1 0 8.76 0 a4.38 4.38 0 1 0 -8.76 0z" fill="black"></path><path d="M1378.12 752.5 a4.38 4.38 0 1 0 8.76 0 a4.38 4.38 0 1 0 -8.76 0zM1413.12 822.5 a4.38 4.38 0 1 0 8.76 0 a4.38 4.38 0 1 0 -8.76 0z" fill="black"></path><path d="M923.12 157.5 a4.38 4.38 0 1 0 8.76 0 a4.38 4.38 0 1 0 -8.76 0zM853.12 17.5 a4.38 4.38 0 1 0 8.76 0 a4.38 4.38 0 1 0 -8.76 0z" fill="black"></path><path d="M1833.12 402.5 a4.38 4.38 0 1 0 8.76 0 a4.38 4.38 0 1 0 -8.76 0zM1763.12 577.5 a4.38 4.38 0 1 0 8.76 0 a4.38 4.38 0 1 0 -8.76 0z" fill="black"></path><path d="M258.12 87.5 a4.38 4.38 0 1 0 8.76 0 a4.38 4.38 0 1 0 -8.76 0zM468.12 122.5 a4.38 4.38 0 1 0 8.76 0 a4.38 4.38 0 1 0 -8.76 0z" fill="black"></path><path d="M1553.12 997.5 a4.38 4.38 0 1 0 8.76 0 a4.38 4.38 0 1 0 -8.76 0zM1378.12 997.5 a4.38 4.38 0 1 0 8.76 0 a4.38 4.38 0 1 0 -8.76 0z" fill="black"></path><path d="M1693.12 612.5 a4.38 4.38 0 1 0 8.76 0 a4.38 4.38 0 1 0 -8.76 0zM1553.12 542.5 a4.38 4.38 0 1 0 8.76 0 a4.38 4.38 0 1 0 -8.76 0z" fill="black"></path><path d="M468.12 227.5 a4.38 4.38 0 1 0 8.76 0 a4.38 4.38 0 1 0 -8.76 0zM363.12 192.5 a4.38 4.38 0 1 0 8.76 0 a4.38 4.38 0 1 0 -8.76 0z" fill="black"></path><path d="M1238.12 717.5 a4.38 4.38 0 1 0 8.76 0 a4.38 4.38 0 1 0 -8.76 0zM1308.12 682.5 a4.38 4.38 0 1 0 8.76 0 a4.38 4.38 0 1 0 -8.76 0z" fill="black"></path><path d="M1378.12 717.5 a4.38 4.38 0 1 0 8.76 0 a4.38 4.38 0 1 0 -8.76 0zM1483.12 717.5 a4.38 4.38 0 1 0 8.76 0 a4.38 4.38 0 1 0 -8.76 0z" fill="black"></path><path d="M1553.12 857.5 a4.38 4.38 0 1 0 8.76 0 a4.38 4.38 0 1 0 -8.76 0zM1623.12 997.5 a4.38 4.38 0 1 0 8.76 0 a4.38 4.38 0 1 0 -8.76 0z" fill="black"></path><path d="M1063.12 962.5 a4.38 4.38 0 1 0 8.76 0 a4.38 4.38 0 1 0 -8.76 0zM888.12 962.5 a4.38 4.38 0 1 0 8.76 0 a4.38 4.38 0 1 0 -8.76 0z" fill="black"></path><path d="M573.12 1032.5 a4.38 4.38 0 1 0 8.76 0 a4.38 4.38 0 1 0 -8.76 0zM678.12 927.5 a4.38 4.38 0 1 0 8.76 0 a4.38 4.38 0 1 0 -8.76 0z" fill="black"></path><path d="M573.12 52.5 a4.38 4.38 0 1 0 8.76 0 a4.38 4.38 0 1 0 -8.76 0zM573.12 122.5 a4.38 4.38 0 1 0 8.76 0 a4.38 4.38 0 1 0 -8.76 0z" fill="black"></path><path d="M1343.12 227.5 a4.38 4.38 0 1 0 8.76 0 a4.38 4.38 0 1 0 -8.76 0zM1273.12 297.5 a4.38 4.38 0 1 0 8.76 0 a4.38 4.38 0 1 0 -8.76 0z" fill="black"></path><path d="M1833.12 647.5 a4.38 4.38 0 1 0 8.76 0 a4.38 4.38 0 1 0 -8.76 0zM1903.12 542.5 a4.38 4.38 0 1 0 8.76 0 a4.38 4.38 0 1 0 -8.76 0z" fill="black"></path><path d="M1518.12 192.5 a4.38 4.38 0 1 0 8.76 0 a4.38 4.38 0 1 0 -8.76 0zM1343.12 52.5 a4.38 4.38 0 1 0 8.76 0 a4.38 4.38 0 1 0 -8.76 0z" fill="black"></path><path d="M363.12 367.5 a4.38 4.38 0 1 0 8.76 0 a4.38 4.38 0 1 0 -8.76 0zM118.12 507.5 a4.38 4.38 0 1 0 8.76 0 a4.38 4.38 0 1 0 -8.76 0z" fill="black"></path><path d="M293.12 437.5 a4.38 4.38 0 1 0 8.76 0 a4.38 4.38 0 1 0 -8.76 0zM223.12 297.5 a4.38 4.38 0 1 0 8.76 0 a4.38 4.38 0 1 0 -8.76 0z" fill="black"></path><path d="M1553.12 52.5 a4.38 4.38 0 1 0 8.76 0 a4.38 4.38 0 1 0 -8.76 0zM1623.12 87.5 a4.38 4.38 0 1 0 8.76 0 a4.38 4.38 0 1 0 -8.76 0z" fill="black"></path><path d="M83.12 122.5 a4.38 4.38 0 1 0 8.76 0 a4.38 4.38 0 1 0 -8.76 0zM153.12 227.5 a4.38 4.38 0 1 0 8.76 0 a4.38 4.38 0 1 0 -8.76 0z" fill="black"></path><path d="M83.12 332.5 a4.38 4.38 0 1 0 8.76 0 a4.38 4.38 0 1 0 -8.76 0zM13.12 437.5 a4.38 4.38 0 1 0 8.76 0 a4.38 4.38 0 1 0 -8.76 0z" fill="black"></path><path d="M293.12 927.5 a4.38 4.38 0 1 0 8.76 0 a4.38 4.38 0 1 0 -8.76 0zM293.12 892.5 a4.38 4.38 0 1 0 8.76 0 a4.38 4.38 0 1 0 -8.76 0z" fill="black"></path><path d="M1623.12 892.5 a4.38 4.38 0 1 0 8.76 0 a4.38 4.38 0 1 0 -8.76 0zM1623.12 962.5 a4.38 4.38 0 1 0 8.76 0 a4.38 4.38 0 1 0 -8.76 0z" fill="black"></path><path d="M1798.12 752.5 a4.38 4.38 0 1 0 8.76 0 a4.38 4.38 0 1 0 -8.76 0zM1868.12 962.5 a4.38 4.38 0 1 0 8.76 0 a4.38 4.38 0 1 0 -8.76 0z" fill="black"></path><path d="M1798.12 122.5 a4.38 4.38 0 1 0 8.76 0 a4.38 4.38 0 1 0 -8.76 0zM1728.12 192.5 a4.38 4.38 0 1 0 8.76 0 a4.38 4.38 0 1 0 -8.76 0z" fill="black"></path><path d="M1308.12 472.5 a4.38 4.38 0 1 0 8.76 0 a4.38 4.38 0 1 0 -8.76 0zM1168.12 472.5 a4.38 4.38 0 1 0 8.76 0 a4.38 4.38 0 1 0 -8.76 0z" fill="black"></path><path d="M188.12 472.5 a4.38 4.38 0 1 0 8.76 0 a4.38 4.38 0 1 0 -8.76 0zM293.12 472.5 a4.38 4.38 0 1 0 8.76 0 a4.38 4.38 0 1 0 -8.76 0z" fill="black"></path><path d="M783.12 542.5 a4.38 4.38 0 1 0 8.76 0 a4.38 4.38 0 1 0 -8.76 0zM923.12 542.5 a4.38 4.38 0 1 0 8.76 0 a4.38 4.38 0 1 0 -8.76 0z" fill="black"></path><path d="M853.12 892.5 a4.38 4.38 0 1 0 8.76 0 a4.38 4.38 0 1 0 -8.76 0zM888.12 787.5 a4.38 4.38 0 1 0 8.76 0 a4.38 4.38 0 1 0 -8.76 0z" fill="black"></path><path d="M363.12 892.5 a4.38 4.38 0 1 0 8.76 0 a4.38 4.38 0 1 0 -8.76 0zM258.12 1032.5 a4.38 4.38 0 1 0 8.76 0 a4.38 4.38 0 1 0 -8.76 0z" fill="black"></path><path d="M223.12 647.5 a4.38 4.38 0 1 0 8.76 0 a4.38 4.38 0 1 0 -8.76 0zM118.12 542.5 a4.38 4.38 0 1 0 8.76 0 a4.38 4.38 0 1 0 -8.76 0z" fill="black"></path><path d="M1483.12 192.5 a4.38 4.38 0 1 0 8.76 0 a4.38 4.38 0 1 0 -8.76 0zM1483.12 262.5 a4.38 4.38 0 1 0 8.76 0 a4.38 4.38 0 1 0 -8.76 0z" fill="black"></path><path d="M1623.12 402.5 a4.38 4.38 0 1 0 8.76 0 a4.38 4.38 0 1 0 -8.76 0zM1588.12 472.5 a4.38 4.38 0 1 0 8.76 0 a4.38 4.38 0 1 0 -8.76 0z" fill="black"></path><path d="M818.12 647.5 a4.38 4.38 0 1 0 8.76 0 a4.38 4.38 0 1 0 -8.76 0zM643.12 472.5 a4.38 4.38 0 1 0 8.76 0 a4.38 4.38 0 1 0 -8.76 0z" fill="black"></path><path d="M1623.12 822.5 a4.38 4.38 0 1 0 8.76 0 a4.38 4.38 0 1 0 -8.76 0zM1553.12 822.5 a4.38 4.38 0 1 0 8.76 0 a4.38 4.38 0 1 0 -8.76 0z" fill="black"></path><path d="M608.12 402.5 a4.38 4.38 0 1 0 8.76 0 a4.38 4.38 0 1 0 -8.76 0zM538.12 437.5 a4.38 4.38 0 1 0 8.76 0 a4.38 4.38 0 1 0 -8.76 0z" fill="black"></path><path d="M1168.12 157.5 a4.38 4.38 0 1 0 8.76 0 a4.38 4.38 0 1 0 -8.76 0zM1273.12 52.5 a4.38 4.38 0 1 0 8.76 0 a4.38 4.38 0 1 0 -8.76 0z" fill="black"></path><path d="M573.12 647.5 a4.38 4.38 0 1 0 8.76 0 a4.38 4.38 0 1 0 -8.76 0zM573.12 542.5 a4.38 4.38 0 1 0 8.76 0 a4.38 4.38 0 1 0 -8.76 0z" fill="black"></path><path d="M398.12 87.5 a4.38 4.38 0 1 0 8.76 0 a4.38 4.38 0 1 0 -8.76 0zM223.12 52.5 a4.38 4.38 0 1 0 8.76 0 a4.38 4.38 0 1 0 -8.76 0z" fill="black"></path><path d="M1308.12 437.5 a4.38 4.38 0 1 0 8.76 0 a4.38 4.38 0 1 0 -8.76 0zM1203.12 437.5 a4.38 4.38 0 1 0 8.76 0 a4.38 4.38 0 1 0 -8.76 0z" fill="black"></path><path d="M1063.12 1067.5 a4.38 4.38 0 1 0 8.76 0 a4.38 4.38 0 1 0 -8.76 0zM1098.12 962.5 a4.38 4.38 0 1 0 8.76 0 a4.38 4.38 0 1 0 -8.76 0z" fill="black"></path><path d="M503.12 787.5 a4.38 4.38 0 1 0 8.76 0 a4.38 4.38 0 1 0 -8.76 0zM433.12 682.5 a4.38 4.38 0 1 0 8.76 0 a4.38 4.38 0 1 0 -8.76 0z" fill="black"></path><path d="M1693.12 122.5 a4.38 4.38 0 1 0 8.76 0 a4.38 4.38 0 1 0 -8.76 0zM1623.12 262.5 a4.38 4.38 0 1 0 8.76 0 a4.38 4.38 0 1 0 -8.76 0z" fill="black"></path><path d="M1763.12 857.5 a4.38 4.38 0 1 0 8.76 0 a4.38 4.38 0 1 0 -8.76 0zM1728.12 787.5 a4.38 4.38 0 1 0 8.76 0 a4.38 4.38 0 1 0 -8.76 0z" fill="black"></path><path d="M223.12 577.5 a4.38 4.38 0 1 0 8.76 0 a4.38 4.38 0 1 0 -8.76 0zM328.12 542.5 a4.38 4.38 0 1 0 8.76 0 a4.38 4.38 0 1 0 -8.76 0z" fill="black"></path><path d="M48.12 297.5 a4.38 4.38 0 1 0 8.76 0 a4.38 4.38 0 1 0 -8.76 0zM13.12 227.5 a4.38 4.38 0 1 0 8.76 0 a4.38 4.38 0 1 0 -8.76 0z" fill="black"></path><path d="M1203.12 822.5 a4.38 4.38 0 1 0 8.76 0 a4.38 4.38 0 1 0 -8.76 0zM1203.12 752.5 a4.38 4.38 0 1 0 8.76 0 a4.38 4.38 0 1 0 -8.76 0z" fill="black"></path><path d="M1728.12 157.5 a4.38 4.38 0 1 0 8.76 0 a4.38 4.38 0 1 0 -8.76 0zM1728.12 87.5 a4.38 4.38 0 1 0 8.76 0 a4.38 4.38 0 1 0 -8.76 0z" fill="black"></path><path d="M1063.12 52.5 a4.38 4.38 0 1 0 8.76 0 a4.38 4.38 0 1 0 -8.76 0zM1133.12 17.5 a4.38 4.38 0 1 0 8.76 0 a4.38 4.38 0 1 0 -8.76 0z" fill="black"></path><path d="M1763.12 437.5 a4.38 4.38 0 1 0 8.76 0 a4.38 4.38 0 1 0 -8.76 0zM1763.12 542.5 a4.38 4.38 0 1 0 8.76 0 a4.38 4.38 0 1 0 -8.76 0z" fill="black"></path><path d="M13.12 367.5 a4.38 4.38 0 1 0 8.76 0 a4.38 4.38 0 1 0 -8.76 0zM13.12 262.5 a4.38 4.38 0 1 0 8.76 0 a4.38 4.38 0 1 0 -8.76 0z" fill="black"></path><path d="M1763.12 87.5 a4.38 4.38 0 1 0 8.76 0 a4.38 4.38 0 1 0 -8.76 0zM1833.12 87.5 a4.38 4.38 0 1 0 8.76 0 a4.38 4.38 0 1 0 -8.76 0z" fill="black"></path><path d="M1413.12 192.5 a4.38 4.38 0 1 0 8.76 0 a4.38 4.38 0 1 0 -8.76 0zM1343.12 87.5 a4.38 4.38 0 1 0 8.76 0 a4.38 4.38 0 1 0 -8.76 0z" fill="black"></path><path d="M1553.12 1067.5 a4.38 4.38 0 1 0 8.76 0 a4.38 4.38 0 1 0 -8.76 0zM1623.12 1067.5 a4.38 4.38 0 1 0 8.76 0 a4.38 4.38 0 1 0 -8.76 0z" fill="black"></path><path d="M1133.12 577.5 a4.38 4.38 0 1 0 8.76 0 a4.38 4.38 0 1 0 -8.76 0zM993.12 577.5 a4.38 4.38 0 1 0 8.76 0 a4.38 4.38 0 1 0 -8.76 0z" fill="black"></path><path d="M853.12 717.5 a4.38 4.38 0 1 0 8.76 0 a4.38 4.38 0 1 0 -8.76 0zM853.12 612.5 a4.38 4.38 0 1 0 8.76 0 a4.38 4.38 0 1 0 -8.76 0z" fill="black"></path><path d="M48.12 17.5 a4.38 4.38 0 1 0 8.76 0 a4.38 4.38 0 1 0 -8.76 0zM13.12 157.5 a4.38 4.38 0 1 0 8.76 0 a4.38 4.38 0 1 0 -8.76 0z" fill="black"></path><path d="M573.12 892.5 a4.38 4.38 0 1 0 8.76 0 a4.38 4.38 0 1 0 -8.76 0zM538.12 997.5 a4.38 4.38 0 1 0 8.76 0 a4.38 4.38 0 1 0 -8.76 0z" fill="black"></path><path d="M1798.12 857.5 a4.38 4.38 0 1 0 8.76 0 a4.38 4.38 0 1 0 -8.76 0zM1763.12 962.5 a4.38 4.38 0 1 0 8.76 0 a4.38 4.38 0 1 0 -8.76 0z" fill="black"></path><path d="M118.12 822.5 a4.38 4.38 0 1 0 8.76 0 a4.38 4.38 0 1 0 -8.76 0zM48.12 927.5 a4.38 4.38 0 1 0 8.76 0 a4.38 4.38 0 1 0 -8.76 0z" fill="black"></path><path d="M1133.12 262.5 a4.38 4.38 0 1 0 8.76 0 a4.38 4.38 0 1 0 -8.76 0zM1238.12 227.5 a4.38 4.38 0 1 0 8.76 0 a4.38 4.38 0 1 0 -8.76 0z" fill="black"></path><path d="M888.12 297.5 a4.38 4.38 0 1 0 8.76 0 a4.38 4.38 0 1 0 -8.76 0zM818.12 297.5 a4.38 4.38 0 1 0 8.76 0 a4.38 4.38 0 1 0 -8.76 0z" fill="black"></path><path d="M433.12 962.5 a4.38 4.38 0 1 0 8.76 0 a4.38 4.38 0 1 0 -8.76 0zM468.12 1067.5 a4.38 4.38 0 1 0 8.76 0 a4.38 4.38 0 1 0 -8.76 0z" fill="black"></path><path d="M608.12 17.5 a4.38 4.38 0 1 0 8.76 0 a4.38 4.38 0 1 0 -8.76 0zM608.12 87.5 a4.38 4.38 0 1 0 8.76 0 a4.38 4.38 0 1 0 -8.76 0z" fill="black"></path><path d="M1413.12 927.5 a4.38 4.38 0 1 0 8.76 0 a4.38 4.38 0 1 0 -8.76 0zM1518.12 892.5 a4.38 4.38 0 1 0 8.76 0 a4.38 4.38 0 1 0 -8.76 0z" fill="black"></path><path d="M1483.12 1067.5 a4.38 4.38 0 1 0 8.76 0 a4.38 4.38 0 1 0 -8.76 0zM1273.12 1032.5 a4.38 4.38 0 1 0 8.76 0 a4.38 4.38 0 1 0 -8.76 0z" fill="black"></path><path d="M1798.12 647.5 a4.38 4.38 0 1 0 8.76 0 a4.38 4.38 0 1 0 -8.76 0zM1903.12 787.5 a4.38 4.38 0 1 0 8.76 0 a4.38 4.38 0 1 0 -8.76 0z" fill="black"></path><path d="M1903.12 157.5 a4.38 4.38 0 1 0 8.76 0 a4.38 4.38 0 1 0 -8.76 0zM1903.12 297.5 a4.38 4.38 0 1 0 8.76 0 a4.38 4.38 0 1 0 -8.76 0z" fill="black"></path><path d="M1553.12 192.5 a4.38 4.38 0 1 0 8.76 0 a4.38 4.38 0 1 0 -8.76 0zM1518.12 262.5 a4.38 4.38 0 1 0 8.76 0 a4.38 4.38 0 1 0 -8.76 0z" fill="black"></path><path d="M1343.12 612.5 a4.38 4.38 0 1 0 8.76 0 a4.38 4.38 0 1 0 -8.76 0zM1273.12 612.5 a4.38 4.38 0 1 0 8.76 0 a4.38 4.38 0 1 0 -8.76 0z" fill="black"></path><path d="M468.12 332.5 a4.38 4.38 0 1 0 8.76 0 a4.38 4.38 0 1 0 -8.76 0zM398.12 437.5 a4.38 4.38 0 1 0 8.76 0 a4.38 4.38 0 1 0 -8.76 0z" fill="black"></path><path d="M118.12 87.5 a4.38 4.38 0 1 0 8.76 0 a4.38 4.38 0 1 0 -8.76 0zM118.12 192.5 a4.38 4.38 0 1 0 8.76 0 a4.38 4.38 0 1 0 -8.76 0z" fill="black"></path><path d="M1063.12 122.5 a4.38 4.38 0 1 0 8.76 0 a4.38 4.38 0 1 0 -8.76 0zM1238.12 52.5 a4.38 4.38 0 1 0 8.76 0 a4.38 4.38 0 1 0 -8.76 0z" fill="black"></path><path d="M223.12 542.5 a4.38 4.38 0 1 0 8.76 0 a4.38 4.38 0 1 0 -8.76 0zM153.12 542.5 a4.38 4.38 0 1 0 8.76 0 a4.38 4.38 0 1 0 -8.76 0z" fill="black"></path><path d="M1868.12 612.5 a4.38 4.38 0 1 0 8.76 0 a4.38 4.38 0 1 0 -8.76 0zM1903.12 717.5 a4.38 4.38 0 1 0 8.76 0 a4.38 4.38 0 1 0 -8.76 0z" fill="black"></path><path d="M188.12 717.5 a4.38 4.38 0 1 0 8.76 0 a4.38 4.38 0 1 0 -8.76 0zM188.12 787.5 a4.38 4.38 0 1 0 8.76 0 a4.38 4.38 0 1 0 -8.76 0z" fill="black"></path><path d="M1518.12 612.5 a4.38 4.38 0 1 0 8.76 0 a4.38 4.38 0 1 0 -8.76 0zM1588.12 612.5 a4.38 4.38 0 1 0 8.76 0 a4.38 4.38 0 1 0 -8.76 0z" fill="black"></path><path d="M1623.12 437.5 a4.38 4.38 0 1 0 8.76 0 a4.38 4.38 0 1 0 -8.76 0zM1693.12 437.5 a4.38 4.38 0 1 0 8.76 0 a4.38 4.38 0 1 0 -8.76 0z" fill="black"></path><path d="M608.12 927.5 a4.38 4.38 0 1 0 8.76 0 a4.38 4.38 0 1 0 -8.76 0zM608.12 857.5 a4.38 4.38 0 1 0 8.76 0 a4.38 4.38 0 1 0 -8.76 0z" fill="black"></path><path d="M713.12 857.5 a4.38 4.38 0 1 0 8.76 0 a4.38 4.38 0 1 0 -8.76 0zM678.12 787.5 a4.38 4.38 0 1 0 8.76 0 a4.38 4.38 0 1 0 -8.76 0z" fill="black"></path><path d="M83.12 52.5 a4.38 4.38 0 1 0 8.76 0 a4.38 4.38 0 1 0 -8.76 0zM153.12 52.5 a4.38 4.38 0 1 0 8.76 0 a4.38 4.38 0 1 0 -8.76 0z" fill="black"></path><path d="M1063.12 822.5 a4.38 4.38 0 1 0 8.76 0 a4.38 4.38 0 1 0 -8.76 0zM1098.12 892.5 a4.38 4.38 0 1 0 8.76 0 a4.38 4.38 0 1 0 -8.76 0z" fill="black"></path><path d="M888.12 227.5 a4.38 4.38 0 1 0 8.76 0 a4.38 4.38 0 1 0 -8.76 0zM783.12 122.5 a4.38 4.38 0 1 0 8.76 0 a4.38 4.38 0 1 0 -8.76 0z" fill="black"></path><path d="M1098.12 682.5 a4.38 4.38 0 1 0 8.76 0 a4.38 4.38 0 1 0 -8.76 0zM1203.12 682.5 a4.38 4.38 0 1 0 8.76 0 a4.38 4.38 0 1 0 -8.76 0z" fill="black"></path><path d="M433.12 297.5 a4.38 4.38 0 1 0 8.76 0 a4.38 4.38 0 1 0 -8.76 0zM433.12 402.5 a4.38 4.38 0 1 0 8.76 0 a4.38 4.38 0 1 0 -8.76 0z" fill="black"></path><path d="M1518.12 402.5 a4.38 4.38 0 1 0 8.76 0 a4.38 4.38 0 1 0 -8.76 0zM1588.12 402.5 a4.38 4.38 0 1 0 8.76 0 a4.38 4.38 0 1 0 -8.76 0z" fill="black"></path><path d="M853.12 1032.5 a4.38 4.38 0 1 0 8.76 0 a4.38 4.38 0 1 0 -8.76 0zM923.12 1067.5 a4.38 4.38 0 1 0 8.76 0 a4.38 4.38 0 1 0 -8.76 0z" fill="black"></path><path d="M398.12 367.5 a4.38 4.38 0 1 0 8.76 0 a4.38 4.38 0 1 0 -8.76 0zM363.12 297.5 a4.38 4.38 0 1 0 8.76 0 a4.38 4.38 0 1 0 -8.76 0z" fill="black"></path><path d="M1448.12 612.5 a4.38 4.38 0 1 0 8.76 0 a4.38 4.38 0 1 0 -8.76 0zM1378.12 612.5 a4.38 4.38 0 1 0 8.76 0 a4.38 4.38 0 1 0 -8.76 0z" fill="black"></path><path d="M1098.12 297.5 a4.38 4.38 0 1 0 8.76 0 a4.38 4.38 0 1 0 -8.76 0zM1203.12 262.5 a4.38 4.38 0 1 0 8.76 0 a4.38 4.38 0 1 0 -8.76 0z" fill="black"></path><path d="M48.12 892.5 a4.38 4.38 0 1 0 8.76 0 a4.38 4.38 0 1 0 -8.76 0zM83.12 822.5 a4.38 4.38 0 1 0 8.76 0 a4.38 4.38 0 1 0 -8.76 0z" fill="black"></path><path d="M1553.12 682.5 a4.38 4.38 0 1 0 8.76 0 a4.38 4.38 0 1 0 -8.76 0zM1623.12 682.5 a4.38 4.38 0 1 0 8.76 0 a4.38 4.38 0 1 0 -8.76 0z" fill="black"></path><path d="M1028.12 1032.5 a4.38 4.38 0 1 0 8.76 0 a4.38 4.38 0 1 0 -8.76 0zM923.12 997.5 a4.38 4.38 0 1 0 8.76 0 a4.38 4.38 0 1 0 -8.76 0z" fill="black"></path><path d="M713.12 1067.5 a4.38 4.38 0 1 0 8.76 0 a4.38 4.38 0 1 0 -8.76 0zM818.12 997.5 a4.38 4.38 0 1 0 8.76 0 a4.38 4.38 0 1 0 -8.76 0z" fill="black"></path><path d="M328.12 927.5 a4.38 4.38 0 1 0 8.76 0 a4.38 4.38 0 1 0 -8.76 0zM258.12 997.5 a4.38 4.38 0 1 0 8.76 0 a4.38 4.38 0 1 0 -8.76 0z" fill="black"></path><path d="M818.12 682.5 a4.38 4.38 0 1 0 8.76 0 a4.38 4.38 0 1 0 -8.76 0zM748.12 647.5 a4.38 4.38 0 1 0 8.76 0 a4.38 4.38 0 1 0 -8.76 0z" fill="black"></path><path d="M1168.12 122.5 a4.38 4.38 0 1 0 8.76 0 a4.38 4.38 0 1 0 -8.76 0zM1063.12 157.5 a4.38 4.38 0 1 0 8.76 0 a4.38 4.38 0 1 0 -8.76 0z" fill="black"></path><path d="M1588.12 647.5 a4.38 4.38 0 1 0 8.76 0 a4.38 4.38 0 1 0 -8.76 0zM1518.12 647.5 a4.38 4.38 0 1 0 8.76 0 a4.38 4.38 0 1 0 -8.76 0z" fill="black"></path><path d="M888.12 192.5 a4.38 4.38 0 1 0 8.76 0 a4.38 4.38 0 1 0 -8.76 0zM853.12 122.5 a4.38 4.38 0 1 0 8.76 0 a4.38 4.38 0 1 0 -8.76 0z" fill="black"></path><path d="M643.12 157.5 a4.38 4.38 0 1 0 8.76 0 a4.38 4.38 0 1 0 -8.76 0zM713.12 227.5 a4.38 4.38 0 1 0 8.76 0 a4.38 4.38 0 1 0 -8.76 0z" fill="black"></path></mask></defs></svg>